<?xml version="1.0" encoding="utf-8"?>
<!-- Generator: Adobe Illustrator 16.0.0, SVG Export Plug-In . SVG Version: 6.00 Build 0)  -->
<!DOCTYPE svg PUBLIC "-//W3C//DTD SVG 1.1//EN" "http://www.w3.org/Graphics/SVG/1.1/DTD/svg11.dtd">
<svg version="1.1" id="Layer_1" xmlns="http://www.w3.org/2000/svg" xmlns:xlink="http://www.w3.org/1999/xlink" x="0px" y="0px"
	 width="1559.061px" height="1342.905px" viewBox="0 0 1559.061 1342.905" enable-background="new 0 0 1559.061 1342.905"
	 xml:space="preserve">
<linearGradient id="SVGID_1_" gradientUnits="userSpaceOnUse" x1="872.1729" y1="72.146" x2="872.1728" y2="860.6592">
	<stop  offset="0" style="stop-color:#FDBB2D"/>
	<stop  offset="0.6034" style="stop-color:#B21F1F"/>
	<stop  offset="1" style="stop-color:#1A2A6C"/>
</linearGradient>
<path fill="url(#SVGID_1_)" d="M872.173,860.659L872.173,860.659c-31.102,0-56.319-25.221-56.319-56.319V128.465
	c0-31.103,25.218-56.319,56.319-56.319l0,0c31.106,0,56.319,25.217,56.319,56.319v675.874
	C928.492,835.438,903.279,860.659,872.173,860.659z"/>
<linearGradient id="SVGID_2_" gradientUnits="userSpaceOnUse" x1="196.3062" y1="410.0767" x2="196.3062" y2="522.7261">
	<stop  offset="0" style="stop-color:#FDBB2D"/>
	<stop  offset="0.8268" style="stop-color:#B21F1F"/>
</linearGradient>
<path fill="url(#SVGID_2_)" d="M196.306,522.726L196.306,522.726c-31.107,0-56.322-25.219-56.322-56.326l0,0
	c0-31.108,25.215-56.324,56.322-56.324l0,0c31.107,0,56.323,25.216,56.323,56.324l0,0
	C252.629,497.507,227.413,522.726,196.306,522.726z"/>
<linearGradient id="SVGID_3_" gradientUnits="userSpaceOnUse" x1="421.5952" y1="297.4355" x2="421.5952" y2="804.3398">
	<stop  offset="0" style="stop-color:#FDBB2D"/>
	<stop  offset="0.4804" style="stop-color:#B21F1F"/>
	<stop  offset="1" style="stop-color:#1A2A6C"/>
</linearGradient>
<path fill="url(#SVGID_3_)" d="M421.595,804.339L421.595,804.339c-31.107,0-56.323-25.221-56.323-56.327V353.757
	c0-31.106,25.216-56.322,56.323-56.322l0,0c31.107,0,56.324,25.215,56.324,56.322v394.255
	C477.918,779.119,452.702,804.339,421.595,804.339z"/>
<linearGradient id="SVGID_4_" gradientUnits="userSpaceOnUse" x1="646.8833" y1="184.7886" x2="646.8833" y2="635.3652">
	<stop  offset="0" style="stop-color:#FDBB2D"/>
	<stop  offset="0.4804" style="stop-color:#B21F1F"/>
	<stop  offset="1" style="stop-color:#1A2A6C"/>
</linearGradient>
<path fill="url(#SVGID_4_)" d="M646.879,635.365L646.879,635.365c-31.099,0-56.319-25.218-56.319-56.32V241.111
	c0-31.106,25.221-56.322,56.319-56.322l0,0c31.115,0,56.328,25.216,56.328,56.322v337.935
	C703.207,610.147,677.994,635.365,646.879,635.365z"/>
<linearGradient id="SVGID_5_" gradientUnits="userSpaceOnUse" x1="1097.4639" y1="184.7886" x2="1097.4639" y2="522.7261">
	<stop  offset="0" style="stop-color:#FDBB2D"/>
	<stop  offset="0.4804" style="stop-color:#B21F1F"/>
	<stop  offset="1" style="stop-color:#1A2A6C"/>
</linearGradient>
<path fill="url(#SVGID_5_)" d="M1097.464,522.726L1097.464,522.726c-31.107,0-56.32-25.219-56.32-56.326v-225.29
	c0-31.106,25.213-56.322,56.32-56.322l0,0c31.101,0,56.32,25.216,56.32,56.322V466.4
	C1153.784,497.507,1128.564,522.726,1097.464,522.726z"/>
<linearGradient id="SVGID_6_" gradientUnits="userSpaceOnUse" x1="1322.7529" y1="410.0767" x2="1322.7529" y2="522.7261">
	<stop  offset="0" style="stop-color:#FDBB2D"/>
	<stop  offset="0.9419" style="stop-color:#B21F1F"/>
</linearGradient>
<path fill="url(#SVGID_6_)" d="M1322.757,522.726L1322.757,522.726c-31.114,0-56.327-25.219-56.327-56.326l0,0
	c0-31.108,25.213-56.324,56.327-56.324l0,0c31.099,0,56.319,25.216,56.319,56.324l0,0
	C1379.076,497.507,1353.855,522.726,1322.757,522.726z"/>
<text transform="matrix(1 0 0 1 141.9834 1155.3267)" fill="#1A2A6C" stroke="#1A2A6C" stroke-miterlimit="10" font-family="'MUSICNET'" font-size="165.0969">BLOCK PARTY</text>
<text transform="matrix(1 0 0 1 141.9844 1269.2349)" fill="#1A2A6C" font-family="'TruenoBd'" font-size="87.4924">CHAIN RIGHT MANAGEMENT</text>
</svg>
