<?xml version="1.0" encoding="utf-8"?>
<!-- Generator: Adobe Illustrator 16.0.0, SVG Export Plug-In . SVG Version: 6.00 Build 0)  -->
<!DOCTYPE svg PUBLIC "-//W3C//DTD SVG 1.1//EN" "http://www.w3.org/Graphics/SVG/1.1/DTD/svg11.dtd">
<svg version="1.1" id="Layer_1" xmlns="http://www.w3.org/2000/svg" xmlns:xlink="http://www.w3.org/1999/xlink" x="0px" y="0px"
	 width="1559.061px" height="1342.905px" viewBox="0 0 1559.061 1342.905" enable-background="new 0 0 1559.061 1342.905"
	 xml:space="preserve">
<linearGradient id="SVGID_1_" gradientUnits="userSpaceOnUse" x1="872.1729" y1="72.146" x2="872.1728" y2="860.6592">
	<stop  offset="0" style="stop-color:#FDBB2D"/>
	<stop  offset="0.6034" style="stop-color:#B21F1F"/>
	<stop  offset="1" style="stop-color:#1A2A6C"/>
</linearGradient>
<path fill="url(#SVGID_1_)" d="M872.173,860.659L872.173,860.659c-31.102,0-56.319-25.221-56.319-56.319V128.465
	c0-31.103,25.218-56.319,56.319-56.319l0,0c31.106,0,56.319,25.217,56.319,56.319v675.874
	C928.492,835.438,903.279,860.659,872.173,860.659z"/>
<linearGradient id="SVGID_2_" gradientUnits="userSpaceOnUse" x1="196.3062" y1="410.0767" x2="196.3062" y2="522.7261">
	<stop  offset="0" style="stop-color:#FDBB2D"/>
	<stop  offset="0.8268" style="stop-color:#B21F1F"/>
</linearGradient>
<path fill="url(#SVGID_2_)" d="M196.306,522.726L196.306,522.726c-31.107,0-56.322-25.219-56.322-56.326l0,0
	c0-31.108,25.215-56.324,56.322-56.324l0,0c31.107,0,56.323,25.216,56.323,56.324l0,0
	C252.629,497.507,227.413,522.726,196.306,522.726z"/>
<linearGradient id="SVGID_3_" gradientUnits="userSpaceOnUse" x1="421.5952" y1="297.4355" x2="421.5952" y2="804.3398">
	<stop  offset="0" style="stop-color:#FDBB2D"/>
	<stop  offset="0.4804" style="stop-color:#B21F1F"/>
	<stop  offset="1" style="stop-color:#1A2A6C"/>
</linearGradient>
<path fill="url(#SVGID_3_)" d="M421.595,804.339L421.595,804.339c-31.107,0-56.323-25.221-56.323-56.327V353.757
	c0-31.106,25.216-56.322,56.323-56.322l0,0c31.107,0,56.324,25.215,56.324,56.322v394.255
	C477.918,779.119,452.702,804.339,421.595,804.339z"/>
<linearGradient id="SVGID_4_" gradientUnits="userSpaceOnUse" x1="646.8833" y1="184.7886" x2="646.8833" y2="635.3652">
	<stop  offset="0" style="stop-color:#FDBB2D"/>
	<stop  offset="0.4804" style="stop-color:#B21F1F"/>
	<stop  offset="1" style="stop-color:#1A2A6C"/>
</linearGradient>
<path fill="url(#SVGID_4_)" d="M646.879,635.365L646.879,635.365c-31.099,0-56.319-25.218-56.319-56.32V241.111
	c0-31.106,25.221-56.322,56.319-56.322l0,0c31.115,0,56.328,25.216,56.328,56.322v337.935
	C703.207,610.147,677.994,635.365,646.879,635.365z"/>
<linearGradient id="SVGID_5_" gradientUnits="userSpaceOnUse" x1="1097.4639" y1="184.7886" x2="1097.4639" y2="522.7261">
	<stop  offset="0" style="stop-color:#FDBB2D"/>
	<stop  offset="0.4804" style="stop-color:#B21F1F"/>
	<stop  offset="1" style="stop-color:#1A2A6C"/>
</linearGradient>
<path fill="url(#SVGID_5_)" d="M1097.464,522.726L1097.464,522.726c-31.107,0-56.32-25.219-56.32-56.326v-225.29
	c0-31.106,25.213-56.322,56.32-56.322l0,0c31.101,0,56.32,25.216,56.32,56.322V466.4
	C1153.784,497.507,1128.564,522.726,1097.464,522.726z"/>
<linearGradient id="SVGID_6_" gradientUnits="userSpaceOnUse" x1="1322.7529" y1="410.0767" x2="1322.7529" y2="522.7261">
	<stop  offset="0" style="stop-color:#FDBB2D"/>
	<stop  offset="0.9419" style="stop-color:#B21F1F"/>
</linearGradient>
<path fill="url(#SVGID_6_)" d="M1322.757,522.726L1322.757,522.726c-31.114,0-56.327-25.219-56.327-56.326l0,0
	c0-31.108,25.213-56.324,56.327-56.324l0,0c31.099,0,56.319,25.216,56.319,56.324l0,0
	C1379.076,497.507,1353.855,522.726,1322.757,522.726z"/>
<g>
	<path fill="#1A2A6C" stroke="#1A2A6C" stroke-miterlimit="10" d="M142.79,1030.698v-7.577h6.449v7.577H142.79z M142.79,1041.016
		v-7.577h6.449v7.577H142.79z M142.79,1051.334v-7.577h6.449v7.577H142.79z M142.79,1061.654v-7.578h6.449v7.578H142.79z
		 M142.79,1071.972v-7.578h6.449v7.578H142.79z M142.79,1082.291v-7.577h6.449v7.577H142.79z M142.79,1092.609v-7.577h6.449v7.577
		H142.79z M142.79,1102.927v-7.577h6.449v7.577H142.79z M142.79,1113.247v-7.578h6.449v7.578H142.79z M142.79,1123.565v-7.578h6.449
		v7.578H142.79z M142.79,1133.883v-7.577h6.449v7.577H142.79z M142.79,1144.202v-7.577h6.449v7.577H142.79z M142.79,1154.521v-7.578
		h6.449v7.578H142.79z M153.108,1030.698v-7.577h6.449v7.577H153.108z M153.108,1041.016v-7.577h6.449v7.577H153.108z
		 M153.108,1051.334v-7.577h6.449v7.577H153.108z M153.108,1061.654v-7.578h6.449v7.578H153.108z M153.108,1071.972v-7.578h6.449
		v7.578H153.108z M153.108,1082.291v-7.577h6.449v7.577H153.108z M153.108,1092.609v-7.577h6.449v7.577H153.108z M153.108,1102.927
		v-7.577h6.449v7.577H153.108z M153.108,1113.247v-7.578h6.449v7.578H153.108z M153.108,1123.565v-7.578h6.449v7.578H153.108z
		 M153.108,1133.883v-7.577h6.449v7.577H153.108z M153.108,1144.202v-7.577h6.449v7.577H153.108z M153.108,1154.521v-7.578h6.449
		v7.578H153.108z M163.427,1030.698v-7.577h6.449v7.577H163.427z M163.427,1041.016v-7.577h6.449v7.577H163.427z M163.427,1051.334
		v-7.577h6.449v7.577H163.427z M163.427,1061.654v-7.578h6.449v7.578H163.427z M163.427,1071.972v-7.578h6.449v7.578H163.427z
		 M163.427,1082.291v-7.577h6.449v7.577H163.427z M163.427,1092.609v-7.577h6.449v7.577H163.427z M163.427,1102.927v-7.577h6.449
		v7.577H163.427z M163.427,1113.247v-7.578h6.449v7.578H163.427z M163.427,1123.565v-7.578h6.449v7.578H163.427z M163.427,1133.883
		v-7.577h6.449v7.577H163.427z M163.427,1144.202v-7.577h6.449v7.577H163.427z M163.427,1154.521v-7.578h6.449v7.578H163.427z
		 M173.745,1030.698v-7.577h6.449v7.577H173.745z M173.745,1041.016v-7.577h6.449v7.577H173.745z M173.745,1051.334v-7.577h6.449
		v7.577H173.745z M173.745,1082.291v-7.577h6.449v7.577H173.745z M173.745,1092.609v-7.577h6.449v7.577H173.745z M173.745,1102.927
		v-7.577h6.449v7.577H173.745z M173.745,1133.883v-7.577h6.449v7.577H173.745z M173.745,1144.202v-7.577h6.449v7.577H173.745z
		 M173.745,1154.521v-7.578h6.449v7.578H173.745z M184.064,1030.698v-7.577h6.449v7.577H184.064z M184.064,1041.016v-7.577h6.449
		v7.577H184.064z M184.064,1051.334v-7.577h6.449v7.577H184.064z M184.064,1082.291v-7.577h6.449v7.577H184.064z M184.064,1092.609
		v-7.577h6.449v7.577H184.064z M184.064,1102.927v-7.577h6.449v7.577H184.064z M184.064,1133.883v-7.577h6.449v7.577H184.064z
		 M184.064,1144.202v-7.577h6.449v7.577H184.064z M184.064,1154.521v-7.578h6.449v7.578H184.064z M194.382,1030.698v-7.577h6.449
		v7.577H194.382z M194.382,1041.016v-7.577h6.449v7.577H194.382z M194.382,1051.334v-7.577h6.449v7.577H194.382z M194.382,1082.291
		v-7.577h6.449v7.577H194.382z M194.382,1092.609v-7.577h6.449v7.577H194.382z M194.382,1102.927v-7.577h6.449v7.577H194.382z
		 M194.382,1133.883v-7.577h6.449v7.577H194.382z M194.382,1144.202v-7.577h6.449v7.577H194.382z M194.382,1154.521v-7.578h6.449
		v7.578H194.382z M204.701,1030.698v-7.577h6.449v7.577H204.701z M204.701,1041.016v-7.577h6.449v7.577H204.701z M204.701,1051.334
		v-7.577h6.449v7.577H204.701z M204.701,1082.291v-7.577h6.449v7.577H204.701z M204.701,1092.609v-7.577h6.449v7.577H204.701z
		 M204.701,1102.927v-7.577h6.449v7.577H204.701z M204.701,1133.883v-7.577h6.449v7.577H204.701z M204.701,1144.202v-7.577h6.449
		v7.577H204.701z M204.701,1154.521v-7.578h6.449v7.578H204.701z M215.02,1030.698v-7.577h6.449v7.577H215.02z M215.02,1041.016
		v-7.577h6.449v7.577H215.02z M215.02,1051.334v-7.577h6.449v7.577H215.02z M215.02,1082.291v-7.577h6.449v7.577H215.02z
		 M215.02,1092.609v-7.577h6.449v7.577H215.02z M215.02,1102.927v-7.577h6.449v7.577H215.02z M215.02,1133.883v-7.577h6.449v7.577
		H215.02z M215.02,1144.202v-7.577h6.449v7.577H215.02z M215.02,1154.521v-7.578h6.449v7.578H215.02z M225.338,1030.698v-7.577
		h6.449v7.577H225.338z M225.338,1041.016v-7.577h6.449v7.577H225.338z M225.338,1051.334v-7.577h6.449v7.577H225.338z
		 M225.338,1061.654v-7.578h6.449v7.578H225.338z M225.338,1071.972v-7.578h6.449v7.578H225.338z M225.338,1082.291v-7.577h6.449
		v7.577H225.338z M225.338,1092.609v-7.577h6.449v7.577H225.338z M225.338,1102.927v-7.577h6.449v7.577H225.338z M225.338,1113.247
		v-7.578h6.449v7.578H225.338z M225.338,1123.565v-7.578h6.449v7.578H225.338z M225.338,1133.883v-7.577h6.449v7.577H225.338z
		 M225.338,1144.202v-7.577h6.449v7.577H225.338z M225.338,1154.521v-7.578h6.449v7.578H225.338z M235.657,1041.016v-7.577h6.449
		v7.577H235.657z M235.657,1051.334v-7.577h6.449v7.577H235.657z M235.657,1061.654v-7.578h6.449v7.578H235.657z M235.657,1071.972
		v-7.578h6.449v7.578H235.657z M235.657,1082.291v-7.577h6.449v7.577H235.657z M235.657,1092.609v-7.577h6.449v7.577H235.657z
		 M235.657,1102.927v-7.577h6.449v7.577H235.657z M235.657,1113.247v-7.578h6.449v7.578H235.657z M235.657,1123.565v-7.578h6.449
		v7.578H235.657z M235.657,1133.883v-7.577h6.449v7.577H235.657z M235.657,1144.202v-7.577h6.449v7.577H235.657z M245.975,1051.334
		v-7.577h6.449v7.577H245.975z M245.975,1061.654v-7.578h6.449v7.578H245.975z M245.975,1071.972v-7.578h6.449v7.578H245.975z
		 M245.975,1082.291v-7.577h6.449v7.577H245.975z M245.975,1102.927v-7.577h6.449v7.577H245.975z M245.975,1113.247v-7.578h6.449
		v7.578H245.975z M245.975,1123.565v-7.578h6.449v7.578H245.975z M245.975,1133.883v-7.577h6.449v7.577H245.975z"/>
	<path fill="#1A2A6C" stroke="#1A2A6C" stroke-miterlimit="10" d="M266.612,1030.698v-7.577h6.449v7.577H266.612z M266.612,1041.016
		v-7.577h6.449v7.577H266.612z M266.612,1051.334v-7.577h6.449v7.577H266.612z M266.612,1061.654v-7.578h6.449v7.578H266.612z
		 M266.612,1071.972v-7.578h6.449v7.578H266.612z M266.612,1082.291v-7.577h6.449v7.577H266.612z M266.612,1092.609v-7.577h6.449
		v7.577H266.612z M266.612,1102.927v-7.577h6.449v7.577H266.612z M266.612,1113.247v-7.578h6.449v7.578H266.612z M266.612,1123.565
		v-7.578h6.449v7.578H266.612z M266.612,1133.883v-7.577h6.449v7.577H266.612z M266.612,1144.202v-7.577h6.449v7.577H266.612z
		 M266.612,1154.521v-7.578h6.449v7.578H266.612z M276.931,1030.698v-7.577h6.449v7.577H276.931z M276.931,1041.016v-7.577h6.449
		v7.577H276.931z M276.931,1051.334v-7.577h6.449v7.577H276.931z M276.931,1061.654v-7.578h6.449v7.578H276.931z M276.931,1071.972
		v-7.578h6.449v7.578H276.931z M276.931,1082.291v-7.577h6.449v7.577H276.931z M276.931,1092.609v-7.577h6.449v7.577H276.931z
		 M276.931,1102.927v-7.577h6.449v7.577H276.931z M276.931,1113.247v-7.578h6.449v7.578H276.931z M276.931,1123.565v-7.578h6.449
		v7.578H276.931z M276.931,1133.883v-7.577h6.449v7.577H276.931z M276.931,1144.202v-7.577h6.449v7.577H276.931z M276.931,1154.521
		v-7.578h6.449v7.578H276.931z M287.25,1030.698v-7.577h6.449v7.577H287.25z M287.25,1041.016v-7.577h6.449v7.577H287.25z
		 M287.25,1051.334v-7.577h6.449v7.577H287.25z M287.25,1061.654v-7.578h6.449v7.578H287.25z M287.25,1071.972v-7.578h6.449v7.578
		H287.25z M287.25,1082.291v-7.577h6.449v7.577H287.25z M287.25,1092.609v-7.577h6.449v7.577H287.25z M287.25,1102.927v-7.577h6.449
		v7.577H287.25z M287.25,1113.247v-7.578h6.449v7.578H287.25z M287.25,1123.565v-7.578h6.449v7.578H287.25z M287.25,1133.883v-7.577
		h6.449v7.577H287.25z M287.25,1144.202v-7.577h6.449v7.577H287.25z M287.25,1154.521v-7.578h6.449v7.578H287.25z M297.568,1133.883
		v-7.577h6.449v7.577H297.568z M297.568,1144.202v-7.577h6.449v7.577H297.568z M297.568,1154.521v-7.578h6.449v7.578H297.568z
		 M307.887,1133.883v-7.577h6.449v7.577H307.887z M307.887,1144.202v-7.577h6.449v7.577H307.887z M307.887,1154.521v-7.578h6.449
		v7.578H307.887z M318.205,1133.883v-7.577h6.449v7.577H318.205z M318.205,1144.202v-7.577h6.449v7.577H318.205z M318.205,1154.521
		v-7.578h6.449v7.578H318.205z M328.523,1133.883v-7.577h6.449v7.577H328.523z M328.523,1144.202v-7.577h6.449v7.577H328.523z
		 M328.523,1154.521v-7.578h6.449v7.578H328.523z M338.842,1133.883v-7.577h6.449v7.577H338.842z M338.842,1144.202v-7.577h6.449
		v7.577H338.842z M338.842,1154.521v-7.578h6.449v7.578H338.842z M349.161,1133.883v-7.577h6.449v7.577H349.161z M349.161,1144.202
		v-7.577h6.449v7.577H349.161z M349.161,1154.521v-7.578h6.449v7.578H349.161z M359.479,1133.883v-7.577h6.449v7.577H359.479z
		 M359.479,1144.202v-7.577h6.449v7.577H359.479z M359.479,1154.521v-7.578h6.449v7.578H359.479z M369.798,1133.883v-7.577h6.449
		v7.577H369.798z M369.798,1144.202v-7.577h6.449v7.577H369.798z M369.798,1154.521v-7.578h6.449v7.578H369.798z"/>
	<path fill="#1A2A6C" stroke="#1A2A6C" stroke-miterlimit="10" d="M390.435,1051.334v-7.577h6.449v7.577H390.435z M390.435,1061.654
		v-7.578h6.449v7.578H390.435z M390.435,1071.972v-7.578h6.449v7.578H390.435z M390.435,1082.291v-7.577h6.449v7.577H390.435z
		 M390.435,1092.609v-7.577h6.449v7.577H390.435z M390.435,1102.927v-7.577h6.449v7.577H390.435z M390.435,1113.247v-7.578h6.449
		v7.578H390.435z M390.435,1123.565v-7.578h6.449v7.578H390.435z M390.435,1133.883v-7.577h6.449v7.577H390.435z M400.753,1041.016
		v-7.577h6.449v7.577H400.753z M400.753,1051.334v-7.577h6.449v7.577H400.753z M400.753,1061.654v-7.578h6.449v7.578H400.753z
		 M400.753,1071.972v-7.578h6.449v7.578H400.753z M400.753,1082.291v-7.577h6.449v7.577H400.753z M400.753,1092.609v-7.577h6.449
		v7.577H400.753z M400.753,1102.927v-7.577h6.449v7.577H400.753z M400.753,1113.247v-7.578h6.449v7.578H400.753z M400.753,1123.565
		v-7.578h6.449v7.578H400.753z M400.753,1133.883v-7.577h6.449v7.577H400.753z M400.753,1144.202v-7.577h6.449v7.577H400.753z
		 M411.072,1030.698v-7.577h6.449v7.577H411.072z M411.072,1041.016v-7.577h6.449v7.577H411.072z M411.072,1051.334v-7.577h6.449
		v7.577H411.072z M411.072,1061.654v-7.578h6.449v7.578H411.072z M411.072,1071.972v-7.578h6.449v7.578H411.072z M411.072,1082.291
		v-7.577h6.449v7.577H411.072z M411.072,1092.609v-7.577h6.449v7.577H411.072z M411.072,1102.927v-7.577h6.449v7.577H411.072z
		 M411.072,1113.247v-7.578h6.449v7.578H411.072z M411.072,1123.565v-7.578h6.449v7.578H411.072z M411.072,1133.883v-7.577h6.449
		v7.577H411.072z M411.072,1144.202v-7.577h6.449v7.577H411.072z M411.072,1154.521v-7.578h6.449v7.578H411.072z M421.391,1030.698
		v-7.577h6.449v7.577H421.391z M421.391,1041.016v-7.577h6.449v7.577H421.391z M421.391,1051.334v-7.577h6.449v7.577H421.391z
		 M421.391,1133.883v-7.577h6.449v7.577H421.391z M421.391,1144.202v-7.577h6.449v7.577H421.391z M421.391,1154.521v-7.578h6.449
		v7.578H421.391z M431.709,1030.698v-7.577h6.449v7.577H431.709z M431.709,1041.016v-7.577h6.449v7.577H431.709z M431.709,1051.334
		v-7.577h6.449v7.577H431.709z M431.709,1133.883v-7.577h6.449v7.577H431.709z M431.709,1144.202v-7.577h6.449v7.577H431.709z
		 M431.709,1154.521v-7.578h6.449v7.578H431.709z M442.028,1030.698v-7.577h6.449v7.577H442.028z M442.028,1041.016v-7.577h6.449
		v7.577H442.028z M442.028,1051.334v-7.577h6.449v7.577H442.028z M442.028,1133.883v-7.577h6.449v7.577H442.028z M442.028,1144.202
		v-7.577h6.449v7.577H442.028z M442.028,1154.521v-7.578h6.449v7.578H442.028z M452.346,1030.698v-7.577h6.449v7.577H452.346z
		 M452.346,1041.016v-7.577h6.449v7.577H452.346z M452.346,1051.334v-7.577h6.449v7.577H452.346z M452.346,1133.883v-7.577h6.449
		v7.577H452.346z M452.346,1144.202v-7.577h6.449v7.577H452.346z M452.346,1154.521v-7.578h6.449v7.578H452.346z M462.665,1030.698
		v-7.577h6.449v7.577H462.665z M462.665,1041.016v-7.577h6.449v7.577H462.665z M462.665,1051.334v-7.577h6.449v7.577H462.665z
		 M462.665,1133.883v-7.577h6.449v7.577H462.665z M462.665,1144.202v-7.577h6.449v7.577H462.665z M462.665,1154.521v-7.578h6.449
		v7.578H462.665z M472.983,1030.698v-7.577h6.449v7.577H472.983z M472.983,1041.016v-7.577h6.449v7.577H472.983z M472.983,1051.334
		v-7.577h6.449v7.577H472.983z M472.983,1061.654v-7.578h6.449v7.578H472.983z M472.983,1071.972v-7.578h6.449v7.578H472.983z
		 M472.983,1082.291v-7.577h6.449v7.577H472.983z M472.983,1092.609v-7.577h6.449v7.577H472.983z M472.983,1102.927v-7.577h6.449
		v7.577H472.983z M472.983,1113.247v-7.578h6.449v7.578H472.983z M472.983,1123.565v-7.578h6.449v7.578H472.983z M472.983,1133.883
		v-7.577h6.449v7.577H472.983z M472.983,1144.202v-7.577h6.449v7.577H472.983z M472.983,1154.521v-7.578h6.449v7.578H472.983z
		 M483.302,1041.016v-7.577h6.449v7.577H483.302z M483.302,1051.334v-7.577h6.449v7.577H483.302z M483.302,1061.654v-7.578h6.449
		v7.578H483.302z M483.302,1071.972v-7.578h6.449v7.578H483.302z M483.302,1082.291v-7.577h6.449v7.577H483.302z M483.302,1092.609
		v-7.577h6.449v7.577H483.302z M483.302,1102.927v-7.577h6.449v7.577H483.302z M483.302,1113.247v-7.578h6.449v7.578H483.302z
		 M483.302,1123.565v-7.578h6.449v7.578H483.302z M483.302,1133.883v-7.577h6.449v7.577H483.302z M483.302,1144.202v-7.577h6.449
		v7.577H483.302z M493.621,1051.334v-7.577h6.449v7.577H493.621z M493.621,1061.654v-7.578h6.449v7.578H493.621z M493.621,1071.972
		v-7.578h6.449v7.578H493.621z M493.621,1082.291v-7.577h6.449v7.577H493.621z M493.621,1092.609v-7.577h6.449v7.577H493.621z
		 M493.621,1102.927v-7.577h6.449v7.577H493.621z M493.621,1113.247v-7.578h6.449v7.578H493.621z M493.621,1123.565v-7.578h6.449
		v7.578H493.621z M493.621,1133.883v-7.577h6.449v7.577H493.621z"/>
	<path fill="#1A2A6C" stroke="#1A2A6C" stroke-miterlimit="10" d="M514.258,1051.334v-7.577h6.449v7.577H514.258z M514.258,1061.654
		v-7.578h6.449v7.578H514.258z M514.258,1071.972v-7.578h6.449v7.578H514.258z M514.258,1082.291v-7.577h6.449v7.577H514.258z
		 M514.258,1092.609v-7.577h6.449v7.577H514.258z M514.258,1102.927v-7.577h6.449v7.577H514.258z M514.258,1113.247v-7.578h6.449
		v7.578H514.258z M514.258,1123.565v-7.578h6.449v7.578H514.258z M514.258,1133.883v-7.577h6.449v7.577H514.258z M524.576,1041.016
		v-7.577h6.449v7.577H524.576z M524.576,1051.334v-7.577h6.449v7.577H524.576z M524.576,1061.654v-7.578h6.449v7.578H524.576z
		 M524.576,1071.972v-7.578h6.449v7.578H524.576z M524.576,1082.291v-7.577h6.449v7.577H524.576z M524.576,1092.609v-7.577h6.449
		v7.577H524.576z M524.576,1102.927v-7.577h6.449v7.577H524.576z M524.576,1113.247v-7.578h6.449v7.578H524.576z M524.576,1123.565
		v-7.578h6.449v7.578H524.576z M524.576,1133.883v-7.577h6.449v7.577H524.576z M524.576,1144.202v-7.577h6.449v7.577H524.576z
		 M534.895,1030.698v-7.577h6.449v7.577H534.895z M534.895,1041.016v-7.577h6.449v7.577H534.895z M534.895,1051.334v-7.577h6.449
		v7.577H534.895z M534.895,1061.654v-7.578h6.449v7.578H534.895z M534.895,1071.972v-7.578h6.449v7.578H534.895z M534.895,1082.291
		v-7.577h6.449v7.577H534.895z M534.895,1092.609v-7.577h6.449v7.577H534.895z M534.895,1102.927v-7.577h6.449v7.577H534.895z
		 M534.895,1113.247v-7.578h6.449v7.578H534.895z M534.895,1123.565v-7.578h6.449v7.578H534.895z M534.895,1133.883v-7.577h6.449
		v7.577H534.895z M534.895,1144.202v-7.577h6.449v7.577H534.895z M534.895,1154.521v-7.578h6.449v7.578H534.895z M545.213,1030.698
		v-7.577h6.449v7.577H545.213z M545.213,1041.016v-7.577h6.449v7.577H545.213z M545.213,1051.334v-7.577h6.449v7.577H545.213z
		 M545.213,1133.883v-7.577h6.449v7.577H545.213z M545.213,1144.202v-7.577h6.449v7.577H545.213z M545.213,1154.521v-7.578h6.449
		v7.578H545.213z M555.532,1030.698v-7.577h6.449v7.577H555.532z M555.532,1041.016v-7.577h6.449v7.577H555.532z M555.532,1051.334
		v-7.577h6.449v7.577H555.532z M555.532,1133.883v-7.577h6.449v7.577H555.532z M555.532,1144.202v-7.577h6.449v7.577H555.532z
		 M555.532,1154.521v-7.578h6.449v7.578H555.532z M565.851,1030.698v-7.577h6.449v7.577H565.851z M565.851,1041.016v-7.577h6.449
		v7.577H565.851z M565.851,1051.334v-7.577h6.449v7.577H565.851z M565.851,1133.883v-7.577h6.449v7.577H565.851z M565.851,1144.202
		v-7.577h6.449v7.577H565.851z M565.851,1154.521v-7.578h6.449v7.578H565.851z M576.169,1030.698v-7.577h6.449v7.577H576.169z
		 M576.169,1041.016v-7.577h6.449v7.577H576.169z M576.169,1051.334v-7.577h6.449v7.577H576.169z M576.169,1133.883v-7.577h6.449
		v7.577H576.169z M576.169,1144.202v-7.577h6.449v7.577H576.169z M576.169,1154.521v-7.578h6.449v7.578H576.169z M586.488,1030.698
		v-7.577h6.449v7.577H586.488z M586.488,1041.016v-7.577h6.449v7.577H586.488z M586.488,1051.334v-7.577h6.449v7.577H586.488z
		 M586.488,1133.883v-7.577h6.449v7.577H586.488z M586.488,1144.202v-7.577h6.449v7.577H586.488z M586.488,1154.521v-7.578h6.449
		v7.578H586.488z M596.806,1030.698v-7.577h6.449v7.577H596.806z M596.806,1041.016v-7.577h6.449v7.577H596.806z M596.806,1051.334
		v-7.577h6.449v7.577H596.806z M596.806,1061.654v-7.578h6.449v7.578H596.806z M596.806,1071.972v-7.578h6.449v7.578H596.806z
		 M596.806,1113.247v-7.578h6.449v7.578H596.806z M596.806,1123.565v-7.578h6.449v7.578H596.806z M596.806,1133.883v-7.577h6.449
		v7.577H596.806z M596.806,1144.202v-7.577h6.449v7.577H596.806z M596.806,1154.521v-7.578h6.449v7.578H596.806z M607.125,1041.016
		v-7.577h6.449v7.577H607.125z M607.125,1051.334v-7.577h6.449v7.577H607.125z M607.125,1061.654v-7.578h6.449v7.578H607.125z
		 M607.125,1071.972v-7.578h6.449v7.578H607.125z M607.125,1113.247v-7.578h6.449v7.578H607.125z M607.125,1123.565v-7.578h6.449
		v7.578H607.125z M607.125,1133.883v-7.577h6.449v7.577H607.125z M607.125,1144.202v-7.577h6.449v7.577H607.125z M617.443,1051.334
		v-7.577h6.449v7.577H617.443z M617.443,1061.654v-7.578h6.449v7.578H617.443z M617.443,1071.972v-7.578h6.449v7.578H617.443z
		 M617.443,1113.247v-7.578h6.449v7.578H617.443z M617.443,1123.565v-7.578h6.449v7.578H617.443z M617.443,1133.883v-7.577h6.449
		v7.577H617.443z"/>
	<path fill="#1A2A6C" stroke="#1A2A6C" stroke-miterlimit="10" d="M638.081,1030.698v-7.577h6.449v7.577H638.081z M638.081,1041.016
		v-7.577h6.449v7.577H638.081z M638.081,1051.334v-7.577h6.449v7.577H638.081z M638.081,1061.654v-7.578h6.449v7.578H638.081z
		 M638.081,1071.972v-7.578h6.449v7.578H638.081z M638.081,1082.291v-7.577h6.449v7.577H638.081z M638.081,1092.609v-7.577h6.449
		v7.577H638.081z M638.081,1102.927v-7.577h6.449v7.577H638.081z M638.081,1113.247v-7.578h6.449v7.578H638.081z M638.081,1123.565
		v-7.578h6.449v7.578H638.081z M638.081,1133.883v-7.577h6.449v7.577H638.081z M638.081,1144.202v-7.577h6.449v7.577H638.081z
		 M638.081,1154.521v-7.578h6.449v7.578H638.081z M648.399,1030.698v-7.577h6.449v7.577H648.399z M648.399,1041.016v-7.577h6.449
		v7.577H648.399z M648.399,1051.334v-7.577h6.449v7.577H648.399z M648.399,1061.654v-7.578h6.449v7.578H648.399z M648.399,1071.972
		v-7.578h6.449v7.578H648.399z M648.399,1082.291v-7.577h6.449v7.577H648.399z M648.399,1092.609v-7.577h6.449v7.577H648.399z
		 M648.399,1102.927v-7.577h6.449v7.577H648.399z M648.399,1113.247v-7.578h6.449v7.578H648.399z M648.399,1123.565v-7.578h6.449
		v7.578H648.399z M648.399,1133.883v-7.577h6.449v7.577H648.399z M648.399,1144.202v-7.577h6.449v7.577H648.399z M648.399,1154.521
		v-7.578h6.449v7.578H648.399z M658.718,1030.698v-7.577h6.449v7.577H658.718z M658.718,1041.016v-7.577h6.449v7.577H658.718z
		 M658.718,1051.334v-7.577h6.449v7.577H658.718z M658.718,1061.654v-7.578h6.449v7.578H658.718z M658.718,1071.972v-7.578h6.449
		v7.578H658.718z M658.718,1082.291v-7.577h6.449v7.577H658.718z M658.718,1092.609v-7.577h6.449v7.577H658.718z M658.718,1102.927
		v-7.577h6.449v7.577H658.718z M658.718,1113.247v-7.578h6.449v7.578H658.718z M658.718,1123.565v-7.578h6.449v7.578H658.718z
		 M658.718,1133.883v-7.577h6.449v7.577H658.718z M658.718,1144.202v-7.577h6.449v7.577H658.718z M658.718,1154.521v-7.578h6.449
		v7.578H658.718z M669.036,1061.654v-7.578h6.449v7.578H669.036z M669.036,1071.972v-7.578h6.449v7.578H669.036z M669.036,1082.291
		v-7.577h6.449v7.577H669.036z M669.036,1092.609v-7.577h6.449v7.577H669.036z M669.036,1102.927v-7.577h6.449v7.577H669.036z
		 M669.036,1113.247v-7.578h6.449v7.578H669.036z M669.036,1123.565v-7.578h6.449v7.578H669.036z M679.355,1051.334v-7.577h6.449
		v7.577H679.355z M679.355,1061.654v-7.578h6.449v7.578H679.355z M679.355,1071.972v-7.578h6.449v7.578H679.355z M679.355,1082.291
		v-7.577h6.449v7.577H679.355z M679.355,1092.609v-7.577h6.449v7.577H679.355z M679.355,1102.927v-7.577h6.449v7.577H679.355z
		 M679.355,1113.247v-7.578h6.449v7.578H679.355z M679.355,1123.565v-7.578h6.449v7.578H679.355z M679.355,1133.883v-7.577h6.449
		v7.577H679.355z M689.673,1041.016v-7.577h6.449v7.577H689.673z M689.673,1051.334v-7.577h6.449v7.577H689.673z M689.673,1061.654
		v-7.578h6.449v7.578H689.673z M689.673,1071.972v-7.578h6.449v7.578H689.673z M689.673,1082.291v-7.577h6.449v7.577H689.673z
		 M689.673,1102.927v-7.577h6.449v7.577H689.673z M689.673,1113.247v-7.578h6.449v7.578H689.673z M689.673,1123.565v-7.578h6.449
		v7.578H689.673z M689.673,1133.883v-7.577h6.449v7.577H689.673z M689.673,1144.202v-7.577h6.449v7.577H689.673z M699.992,1030.698
		v-7.577h6.449v7.577H699.992z M699.992,1041.016v-7.577h6.449v7.577H699.992z M699.992,1051.334v-7.577h6.449v7.577H699.992z
		 M699.992,1061.654v-7.578h6.449v7.578H699.992z M699.992,1071.972v-7.578h6.449v7.578H699.992z M699.992,1113.247v-7.578h6.449
		v7.578H699.992z M699.992,1123.565v-7.578h6.449v7.578H699.992z M699.992,1133.883v-7.577h6.449v7.577H699.992z M699.992,1144.202
		v-7.577h6.449v7.577H699.992z M699.992,1154.521v-7.578h6.449v7.578H699.992z M710.311,1030.698v-7.577h6.449v7.577H710.311z
		 M710.311,1041.016v-7.577h6.449v7.577H710.311z M710.311,1051.334v-7.577h6.449v7.577H710.311z M710.311,1061.654v-7.578h6.449
		v7.578H710.311z M710.311,1123.565v-7.578h6.449v7.578H710.311z M710.311,1133.883v-7.577h6.449v7.577H710.311z M710.311,1144.202
		v-7.577h6.449v7.577H710.311z M710.311,1154.521v-7.578h6.449v7.578H710.311z M720.629,1030.698v-7.577h6.449v7.577H720.629z
		 M720.629,1041.016v-7.577h6.449v7.577H720.629z M720.629,1051.334v-7.577h6.449v7.577H720.629z M720.629,1133.883v-7.577h6.449
		v7.577H720.629z M720.629,1144.202v-7.577h6.449v7.577H720.629z M720.629,1154.521v-7.578h6.449v7.578H720.629z M730.948,1030.698
		v-7.577h6.449v7.577H730.948z M730.948,1041.016v-7.577h6.449v7.577H730.948z M730.948,1144.202v-7.577h6.449v7.577H730.948z
		 M730.948,1154.521v-7.578h6.449v7.578H730.948z M741.266,1030.698v-7.577h6.449v7.577H741.266z M741.266,1154.521v-7.578h6.449
		v7.578H741.266z"/>
	<path fill="#1A2A6C" stroke="#1A2A6C" stroke-miterlimit="10" d="M813.495,1030.698v-7.577h6.449v7.577H813.495z M813.495,1041.016
		v-7.577h6.449v7.577H813.495z M813.495,1051.334v-7.577h6.449v7.577H813.495z M813.495,1061.654v-7.578h6.449v7.578H813.495z
		 M813.495,1071.972v-7.578h6.449v7.578H813.495z M813.495,1082.291v-7.577h6.449v7.577H813.495z M813.495,1092.609v-7.577h6.449
		v7.577H813.495z M813.495,1102.927v-7.577h6.449v7.577H813.495z M813.495,1113.247v-7.578h6.449v7.578H813.495z M813.495,1123.565
		v-7.578h6.449v7.578H813.495z M813.495,1133.883v-7.577h6.449v7.577H813.495z M813.495,1144.202v-7.577h6.449v7.577H813.495z
		 M813.495,1154.521v-7.578h6.449v7.578H813.495z M823.814,1030.698v-7.577h6.449v7.577H823.814z M823.814,1041.016v-7.577h6.449
		v7.577H823.814z M823.814,1051.334v-7.577h6.449v7.577H823.814z M823.814,1061.654v-7.578h6.449v7.578H823.814z M823.814,1071.972
		v-7.578h6.449v7.578H823.814z M823.814,1082.291v-7.577h6.449v7.577H823.814z M823.814,1092.609v-7.577h6.449v7.577H823.814z
		 M823.814,1102.927v-7.577h6.449v7.577H823.814z M823.814,1113.247v-7.578h6.449v7.578H823.814z M823.814,1123.565v-7.578h6.449
		v7.578H823.814z M823.814,1133.883v-7.577h6.449v7.577H823.814z M823.814,1144.202v-7.577h6.449v7.577H823.814z M823.814,1154.521
		v-7.578h6.449v7.578H823.814z M834.133,1030.698v-7.577h6.449v7.577H834.133z M834.133,1041.016v-7.577h6.449v7.577H834.133z
		 M834.133,1051.334v-7.577h6.449v7.577H834.133z M834.133,1061.654v-7.578h6.449v7.578H834.133z M834.133,1071.972v-7.578h6.449
		v7.578H834.133z M834.133,1082.291v-7.577h6.449v7.577H834.133z M834.133,1092.609v-7.577h6.449v7.577H834.133z M834.133,1102.927
		v-7.577h6.449v7.577H834.133z M834.133,1113.247v-7.578h6.449v7.578H834.133z M834.133,1123.565v-7.578h6.449v7.578H834.133z
		 M834.133,1133.883v-7.577h6.449v7.577H834.133z M834.133,1144.202v-7.577h6.449v7.577H834.133z M834.133,1154.521v-7.578h6.449
		v7.578H834.133z M844.451,1030.698v-7.577h6.449v7.577H844.451z M844.451,1041.016v-7.577h6.449v7.577H844.451z M844.451,1051.334
		v-7.577h6.449v7.577H844.451z M844.451,1082.291v-7.577h6.449v7.577H844.451z M844.451,1092.609v-7.577h6.449v7.577H844.451z
		 M844.451,1102.927v-7.577h6.449v7.577H844.451z M854.77,1030.698v-7.577h6.449v7.577H854.77z M854.77,1041.016v-7.577h6.449v7.577
		H854.77z M854.77,1051.334v-7.577h6.449v7.577H854.77z M854.77,1082.291v-7.577h6.449v7.577H854.77z M854.77,1092.609v-7.577h6.449
		v7.577H854.77z M854.77,1102.927v-7.577h6.449v7.577H854.77z M865.089,1030.698v-7.577h6.448v7.577H865.089z M865.089,1041.016
		v-7.577h6.448v7.577H865.089z M865.089,1051.334v-7.577h6.448v7.577H865.089z M865.089,1082.291v-7.577h6.448v7.577H865.089z
		 M865.089,1092.609v-7.577h6.448v7.577H865.089z M865.089,1102.927v-7.577h6.448v7.577H865.089z M875.407,1030.698v-7.577h6.449
		v7.577H875.407z M875.407,1041.016v-7.577h6.449v7.577H875.407z M875.407,1051.334v-7.577h6.449v7.577H875.407z M875.407,1082.291
		v-7.577h6.449v7.577H875.407z M875.407,1092.609v-7.577h6.449v7.577H875.407z M875.407,1102.927v-7.577h6.449v7.577H875.407z
		 M885.726,1030.698v-7.577h6.449v7.577H885.726z M885.726,1041.016v-7.577h6.449v7.577H885.726z M885.726,1051.334v-7.577h6.449
		v7.577H885.726z M885.726,1082.291v-7.577h6.449v7.577H885.726z M885.726,1092.609v-7.577h6.449v7.577H885.726z M885.726,1102.927
		v-7.577h6.449v7.577H885.726z M896.044,1030.698v-7.577h6.449v7.577H896.044z M896.044,1041.016v-7.577h6.449v7.577H896.044z
		 M896.044,1051.334v-7.577h6.449v7.577H896.044z M896.044,1061.654v-7.578h6.449v7.578H896.044z M896.044,1071.972v-7.578h6.449
		v7.578H896.044z M896.044,1082.291v-7.577h6.449v7.577H896.044z M896.044,1092.609v-7.577h6.449v7.577H896.044z M896.044,1102.927
		v-7.577h6.449v7.577H896.044z M906.362,1041.016v-7.577h6.449v7.577H906.362z M906.362,1051.334v-7.577h6.449v7.577H906.362z
		 M906.362,1061.654v-7.578h6.449v7.578H906.362z M906.362,1071.972v-7.578h6.449v7.578H906.362z M906.362,1082.291v-7.577h6.449
		v7.577H906.362z M906.362,1092.609v-7.577h6.449v7.577H906.362z M916.682,1051.334v-7.577h6.448v7.577H916.682z M916.682,1061.654
		v-7.578h6.448v7.578H916.682z M916.682,1071.972v-7.578h6.448v7.578H916.682z M916.682,1082.291v-7.577h6.448v7.577H916.682z"/>
	<path fill="#1A2A6C" stroke="#1A2A6C" stroke-miterlimit="10" d="M937.318,1051.334v-7.577h6.449v7.577H937.318z M937.318,1061.654
		v-7.578h6.449v7.578H937.318z M937.318,1071.972v-7.578h6.449v7.578H937.318z M937.318,1082.291v-7.577h6.449v7.577H937.318z
		 M937.318,1092.609v-7.577h6.449v7.577H937.318z M937.318,1102.927v-7.577h6.449v7.577H937.318z M937.318,1113.247v-7.578h6.449
		v7.578H937.318z M937.318,1123.565v-7.578h6.449v7.578H937.318z M937.318,1133.883v-7.577h6.449v7.577H937.318z M937.318,1144.202
		v-7.577h6.449v7.577H937.318z M937.318,1154.521v-7.578h6.449v7.578H937.318z M947.638,1041.016v-7.577h6.449v7.577H947.638z
		 M947.638,1051.334v-7.577h6.449v7.577H947.638z M947.638,1061.654v-7.578h6.449v7.578H947.638z M947.638,1071.972v-7.578h6.449
		v7.578H947.638z M947.638,1082.291v-7.577h6.449v7.577H947.638z M947.638,1092.609v-7.577h6.449v7.577H947.638z M947.638,1102.927
		v-7.577h6.449v7.577H947.638z M947.638,1113.247v-7.578h6.449v7.578H947.638z M947.638,1123.565v-7.578h6.449v7.578H947.638z
		 M947.638,1133.883v-7.577h6.449v7.577H947.638z M947.638,1144.202v-7.577h6.449v7.577H947.638z M947.638,1154.521v-7.578h6.449
		v7.578H947.638z M957.956,1030.698v-7.577h6.449v7.577H957.956z M957.956,1041.016v-7.577h6.449v7.577H957.956z M957.956,1051.334
		v-7.577h6.449v7.577H957.956z M957.956,1061.654v-7.578h6.449v7.578H957.956z M957.956,1071.972v-7.578h6.449v7.578H957.956z
		 M957.956,1082.291v-7.577h6.449v7.577H957.956z M957.956,1092.609v-7.577h6.449v7.577H957.956z M957.956,1102.927v-7.577h6.449
		v7.577H957.956z M957.956,1113.247v-7.578h6.449v7.578H957.956z M957.956,1123.565v-7.578h6.449v7.578H957.956z M957.956,1133.883
		v-7.577h6.449v7.577H957.956z M957.956,1144.202v-7.577h6.449v7.577H957.956z M957.956,1154.521v-7.578h6.449v7.578H957.956z
		 M968.274,1030.698v-7.577h6.449v7.577H968.274z M968.274,1041.016v-7.577h6.449v7.577H968.274z M968.274,1051.334v-7.577h6.449
		v7.577H968.274z M968.274,1082.291v-7.577h6.449v7.577H968.274z M968.274,1092.609v-7.577h6.449v7.577H968.274z M968.274,1102.927
		v-7.577h6.449v7.577H968.274z M978.593,1030.698v-7.577h6.449v7.577H978.593z M978.593,1041.016v-7.577h6.449v7.577H978.593z
		 M978.593,1051.334v-7.577h6.449v7.577H978.593z M978.593,1082.291v-7.577h6.449v7.577H978.593z M978.593,1092.609v-7.577h6.449
		v7.577H978.593z M978.593,1102.927v-7.577h6.449v7.577H978.593z M988.912,1030.698v-7.577h6.448v7.577H988.912z M988.912,1041.016
		v-7.577h6.448v7.577H988.912z M988.912,1051.334v-7.577h6.448v7.577H988.912z M988.912,1082.291v-7.577h6.448v7.577H988.912z
		 M988.912,1092.609v-7.577h6.448v7.577H988.912z M988.912,1102.927v-7.577h6.448v7.577H988.912z M999.23,1030.698v-7.577h6.449
		v7.577H999.23z M999.23,1041.016v-7.577h6.449v7.577H999.23z M999.23,1051.334v-7.577h6.449v7.577H999.23z M999.23,1082.291v-7.577
		h6.449v7.577H999.23z M999.23,1092.609v-7.577h6.449v7.577H999.23z M999.23,1102.927v-7.577h6.449v7.577H999.23z
		 M1009.549,1030.698v-7.577h6.449v7.577H1009.549z M1009.549,1041.016v-7.577h6.449v7.577H1009.549z M1009.549,1051.334v-7.577
		h6.449v7.577H1009.549z M1009.549,1082.291v-7.577h6.449v7.577H1009.549z M1009.549,1092.609v-7.577h6.449v7.577H1009.549z
		 M1009.549,1102.927v-7.577h6.449v7.577H1009.549z M1019.867,1030.698v-7.577h6.449v7.577H1019.867z M1019.867,1041.016v-7.577
		h6.449v7.577H1019.867z M1019.867,1051.334v-7.577h6.449v7.577H1019.867z M1019.867,1061.654v-7.578h6.449v7.578H1019.867z
		 M1019.867,1071.972v-7.578h6.449v7.578H1019.867z M1019.867,1082.291v-7.577h6.449v7.577H1019.867z M1019.867,1092.609v-7.577
		h6.449v7.577H1019.867z M1019.867,1102.927v-7.577h6.449v7.577H1019.867z M1019.867,1113.247v-7.578h6.449v7.578H1019.867z
		 M1019.867,1123.565v-7.578h6.449v7.578H1019.867z M1019.867,1133.883v-7.577h6.449v7.577H1019.867z M1019.867,1144.202v-7.577
		h6.449v7.577H1019.867z M1019.867,1154.521v-7.578h6.449v7.578H1019.867z M1030.186,1041.016v-7.577h6.449v7.577H1030.186z
		 M1030.186,1051.334v-7.577h6.449v7.577H1030.186z M1030.186,1061.654v-7.578h6.449v7.578H1030.186z M1030.186,1071.972v-7.578
		h6.449v7.578H1030.186z M1030.186,1082.291v-7.577h6.449v7.577H1030.186z M1030.186,1092.609v-7.577h6.449v7.577H1030.186z
		 M1030.186,1102.927v-7.577h6.449v7.577H1030.186z M1030.186,1113.247v-7.578h6.449v7.578H1030.186z M1030.186,1123.565v-7.578
		h6.449v7.578H1030.186z M1030.186,1133.883v-7.577h6.449v7.577H1030.186z M1030.186,1144.202v-7.577h6.449v7.577H1030.186z
		 M1030.186,1154.521v-7.578h6.449v7.578H1030.186z M1040.505,1051.334v-7.577h6.448v7.577H1040.505z M1040.505,1061.654v-7.578
		h6.448v7.578H1040.505z M1040.505,1071.972v-7.578h6.448v7.578H1040.505z M1040.505,1082.291v-7.577h6.448v7.577H1040.505z
		 M1040.505,1092.609v-7.577h6.448v7.577H1040.505z M1040.505,1102.927v-7.577h6.448v7.577H1040.505z M1040.505,1113.247v-7.578
		h6.448v7.578H1040.505z M1040.505,1123.565v-7.578h6.448v7.578H1040.505z M1040.505,1133.883v-7.577h6.448v7.577H1040.505z
		 M1040.505,1144.202v-7.577h6.448v7.577H1040.505z M1040.505,1154.521v-7.578h6.448v7.578H1040.505z"/>
	<path fill="#1A2A6C" stroke="#1A2A6C" stroke-miterlimit="10" d="M1061.141,1030.698v-7.577h6.449v7.577H1061.141z
		 M1061.141,1041.016v-7.577h6.449v7.577H1061.141z M1061.141,1051.334v-7.577h6.449v7.577H1061.141z M1061.141,1061.654v-7.578
		h6.449v7.578H1061.141z M1061.141,1071.972v-7.578h6.449v7.578H1061.141z M1061.141,1082.291v-7.577h6.449v7.577H1061.141z
		 M1061.141,1092.609v-7.577h6.449v7.577H1061.141z M1061.141,1102.927v-7.577h6.449v7.577H1061.141z M1061.141,1113.247v-7.578
		h6.449v7.578H1061.141z M1061.141,1123.565v-7.578h6.449v7.578H1061.141z M1061.141,1133.883v-7.577h6.449v7.577H1061.141z
		 M1061.141,1144.202v-7.577h6.449v7.577H1061.141z M1061.141,1154.521v-7.578h6.449v7.578H1061.141z M1071.46,1030.698v-7.577
		h6.449v7.577H1071.46z M1071.46,1041.016v-7.577h6.449v7.577H1071.46z M1071.46,1051.334v-7.577h6.449v7.577H1071.46z
		 M1071.46,1061.654v-7.578h6.449v7.578H1071.46z M1071.46,1071.972v-7.578h6.449v7.578H1071.46z M1071.46,1082.291v-7.577h6.449
		v7.577H1071.46z M1071.46,1092.609v-7.577h6.449v7.577H1071.46z M1071.46,1102.927v-7.577h6.449v7.577H1071.46z M1071.46,1113.247
		v-7.578h6.449v7.578H1071.46z M1071.46,1123.565v-7.578h6.449v7.578H1071.46z M1071.46,1133.883v-7.577h6.449v7.577H1071.46z
		 M1071.46,1144.202v-7.577h6.449v7.577H1071.46z M1071.46,1154.521v-7.578h6.449v7.578H1071.46z M1081.778,1030.698v-7.577h6.449
		v7.577H1081.778z M1081.778,1041.016v-7.577h6.449v7.577H1081.778z M1081.778,1051.334v-7.577h6.449v7.577H1081.778z
		 M1081.778,1061.654v-7.578h6.449v7.578H1081.778z M1081.778,1071.972v-7.578h6.449v7.578H1081.778z M1081.778,1082.291v-7.577
		h6.449v7.577H1081.778z M1081.778,1092.609v-7.577h6.449v7.577H1081.778z M1081.778,1102.927v-7.577h6.449v7.577H1081.778z
		 M1081.778,1113.247v-7.578h6.449v7.578H1081.778z M1081.778,1123.565v-7.578h6.449v7.578H1081.778z M1081.778,1133.883v-7.577
		h6.449v7.577H1081.778z M1081.778,1144.202v-7.577h6.449v7.577H1081.778z M1081.778,1154.521v-7.578h6.449v7.578H1081.778z
		 M1092.097,1030.698v-7.577h6.449v7.577H1092.097z M1092.097,1041.016v-7.577h6.449v7.577H1092.097z M1092.097,1051.334v-7.577
		h6.449v7.577H1092.097z M1092.097,1082.291v-7.577h6.449v7.577H1092.097z M1092.097,1092.609v-7.577h6.449v7.577H1092.097z
		 M1092.097,1102.927v-7.577h6.449v7.577H1092.097z M1102.415,1030.698v-7.577h6.449v7.577H1102.415z M1102.415,1041.016v-7.577
		h6.449v7.577H1102.415z M1102.415,1051.334v-7.577h6.449v7.577H1102.415z M1102.415,1082.291v-7.577h6.449v7.577H1102.415z
		 M1102.415,1092.609v-7.577h6.449v7.577H1102.415z M1102.415,1102.927v-7.577h6.449v7.577H1102.415z M1112.734,1030.698v-7.577
		h6.448v7.577H1112.734z M1112.734,1041.016v-7.577h6.448v7.577H1112.734z M1112.734,1051.334v-7.577h6.448v7.577H1112.734z
		 M1112.734,1082.291v-7.577h6.448v7.577H1112.734z M1112.734,1092.609v-7.577h6.448v7.577H1112.734z M1112.734,1102.927v-7.577
		h6.448v7.577H1112.734z M1123.053,1030.698v-7.577h6.449v7.577H1123.053z M1123.053,1041.016v-7.577h6.449v7.577H1123.053z
		 M1123.053,1051.334v-7.577h6.449v7.577H1123.053z M1123.053,1082.291v-7.577h6.449v7.577H1123.053z M1123.053,1092.609v-7.577
		h6.449v7.577H1123.053z M1123.053,1102.927v-7.577h6.449v7.577H1123.053z M1133.371,1030.698v-7.577h6.449v7.577H1133.371z
		 M1133.371,1041.016v-7.577h6.449v7.577H1133.371z M1133.371,1051.334v-7.577h6.449v7.577H1133.371z M1133.371,1082.291v-7.577
		h6.449v7.577H1133.371z M1133.371,1092.609v-7.577h6.449v7.577H1133.371z M1133.371,1102.927v-7.577h6.449v7.577H1133.371z
		 M1143.689,1030.698v-7.577h6.449v7.577H1143.689z M1143.689,1041.016v-7.577h6.449v7.577H1143.689z M1143.689,1051.334v-7.577
		h6.449v7.577H1143.689z M1143.689,1061.654v-7.578h6.449v7.578H1143.689z M1143.689,1071.972v-7.578h6.449v7.578H1143.689z
		 M1143.689,1082.291v-7.577h6.449v7.577H1143.689z M1143.689,1092.609v-7.577h6.449v7.577H1143.689z M1143.689,1102.927v-7.577
		h6.449v7.577H1143.689z M1143.689,1113.247v-7.578h6.449v7.578H1143.689z M1143.689,1123.565v-7.578h6.449v7.578H1143.689z
		 M1143.689,1133.883v-7.577h6.449v7.577H1143.689z M1143.689,1144.202v-7.577h6.449v7.577H1143.689z M1143.689,1154.521v-7.578
		h6.449v7.578H1143.689z M1154.008,1041.016v-7.577h6.449v7.577H1154.008z M1154.008,1051.334v-7.577h6.449v7.577H1154.008z
		 M1154.008,1061.654v-7.578h6.449v7.578H1154.008z M1154.008,1071.972v-7.578h6.449v7.578H1154.008z M1154.008,1082.291v-7.577
		h6.449v7.577H1154.008z M1154.008,1092.609v-7.577h6.449v7.577H1154.008z M1154.008,1102.927v-7.577h6.449v7.577H1154.008z
		 M1154.008,1113.247v-7.578h6.449v7.578H1154.008z M1154.008,1123.565v-7.578h6.449v7.578H1154.008z M1154.008,1133.883v-7.577
		h6.449v7.577H1154.008z M1154.008,1144.202v-7.577h6.449v7.577H1154.008z M1154.008,1154.521v-7.578h6.449v7.578H1154.008z
		 M1164.327,1051.334v-7.577h6.448v7.577H1164.327z M1164.327,1061.654v-7.578h6.448v7.578H1164.327z M1164.327,1071.972v-7.578
		h6.448v7.578H1164.327z M1164.327,1082.291v-7.577h6.448v7.577H1164.327z M1164.327,1102.927v-7.577h6.448v7.577H1164.327z
		 M1164.327,1113.247v-7.578h6.448v7.578H1164.327z M1164.327,1123.565v-7.578h6.448v7.578H1164.327z M1164.327,1133.883v-7.577
		h6.448v7.577H1164.327z M1164.327,1144.202v-7.577h6.448v7.577H1164.327z M1164.327,1154.521v-7.578h6.448v7.578H1164.327z"/>
	<path fill="#1A2A6C" stroke="#1A2A6C" stroke-miterlimit="10" d="M1184.964,1030.698v-7.577h6.449v7.577H1184.964z
		 M1184.964,1041.016v-7.577h6.449v7.577H1184.964z M1184.964,1051.334v-7.577h6.449v7.577H1184.964z M1195.283,1030.698v-7.577
		h6.449v7.577H1195.283z M1195.283,1041.016v-7.577h6.449v7.577H1195.283z M1195.283,1051.334v-7.577h6.449v7.577H1195.283z
		 M1205.602,1030.698v-7.577h6.449v7.577H1205.602z M1205.602,1041.016v-7.577h6.449v7.577H1205.602z M1205.602,1051.334v-7.577
		h6.449v7.577H1205.602z M1215.92,1030.698v-7.577h6.449v7.577H1215.92z M1215.92,1041.016v-7.577h6.449v7.577H1215.92z
		 M1215.92,1051.334v-7.577h6.449v7.577H1215.92z M1226.238,1030.698v-7.577h6.449v7.577H1226.238z M1226.238,1041.016v-7.577h6.449
		v7.577H1226.238z M1226.238,1051.334v-7.577h6.449v7.577H1226.238z M1226.238,1061.654v-7.578h6.449v7.578H1226.238z
		 M1226.238,1071.972v-7.578h6.449v7.578H1226.238z M1226.238,1082.291v-7.577h6.449v7.577H1226.238z M1226.238,1092.609v-7.577
		h6.449v7.577H1226.238z M1226.238,1102.927v-7.577h6.449v7.577H1226.238z M1226.238,1113.247v-7.578h6.449v7.578H1226.238z
		 M1226.238,1123.565v-7.578h6.449v7.578H1226.238z M1226.238,1133.883v-7.577h6.449v7.577H1226.238z M1226.238,1144.202v-7.577
		h6.449v7.577H1226.238z M1226.238,1154.521v-7.578h6.449v7.578H1226.238z M1236.558,1030.698v-7.577h6.448v7.577H1236.558z
		 M1236.558,1041.016v-7.577h6.448v7.577H1236.558z M1236.558,1051.334v-7.577h6.448v7.577H1236.558z M1236.558,1061.654v-7.578
		h6.448v7.578H1236.558z M1236.558,1071.972v-7.578h6.448v7.578H1236.558z M1236.558,1082.291v-7.577h6.448v7.577H1236.558z
		 M1236.558,1092.609v-7.577h6.448v7.577H1236.558z M1236.558,1102.927v-7.577h6.448v7.577H1236.558z M1236.558,1113.247v-7.578
		h6.448v7.578H1236.558z M1236.558,1123.565v-7.578h6.448v7.578H1236.558z M1236.558,1133.883v-7.577h6.448v7.577H1236.558z
		 M1236.558,1144.202v-7.577h6.448v7.577H1236.558z M1236.558,1154.521v-7.578h6.448v7.578H1236.558z M1246.876,1030.698v-7.577
		h6.449v7.577H1246.876z M1246.876,1041.016v-7.577h6.449v7.577H1246.876z M1246.876,1051.334v-7.577h6.449v7.577H1246.876z
		 M1246.876,1061.654v-7.578h6.449v7.578H1246.876z M1246.876,1071.972v-7.578h6.449v7.578H1246.876z M1246.876,1082.291v-7.577
		h6.449v7.577H1246.876z M1246.876,1092.609v-7.577h6.449v7.577H1246.876z M1246.876,1102.927v-7.577h6.449v7.577H1246.876z
		 M1246.876,1113.247v-7.578h6.449v7.578H1246.876z M1246.876,1123.565v-7.578h6.449v7.578H1246.876z M1246.876,1133.883v-7.577
		h6.449v7.577H1246.876z M1246.876,1144.202v-7.577h6.449v7.577H1246.876z M1246.876,1154.521v-7.578h6.449v7.578H1246.876z
		 M1257.194,1030.698v-7.577h6.449v7.577H1257.194z M1257.194,1041.016v-7.577h6.449v7.577H1257.194z M1257.194,1051.334v-7.577
		h6.449v7.577H1257.194z M1267.513,1030.698v-7.577h6.449v7.577H1267.513z M1267.513,1041.016v-7.577h6.449v7.577H1267.513z
		 M1267.513,1051.334v-7.577h6.449v7.577H1267.513z M1277.831,1030.698v-7.577h6.449v7.577H1277.831z M1277.831,1041.016v-7.577
		h6.449v7.577H1277.831z M1277.831,1051.334v-7.577h6.449v7.577H1277.831z M1288.15,1030.698v-7.577h6.448v7.577H1288.15z
		 M1288.15,1041.016v-7.577h6.448v7.577H1288.15z M1288.15,1051.334v-7.577h6.448v7.577H1288.15z"/>
	<path fill="#1A2A6C" stroke="#1A2A6C" stroke-miterlimit="10" d="M1308.786,1030.698v-7.577h6.449v7.577H1308.786z
		 M1308.786,1041.016v-7.577h6.449v7.577H1308.786z M1308.786,1051.334v-7.577h6.449v7.577H1308.786z M1308.786,1061.654v-7.578
		h6.449v7.578H1308.786z M1308.786,1071.972v-7.578h6.449v7.578H1308.786z M1308.786,1082.291v-7.577h6.449v7.577H1308.786z
		 M1308.786,1133.883v-7.577h6.449v7.577H1308.786z M1308.786,1144.202v-7.577h6.449v7.577H1308.786z M1308.786,1154.521v-7.578
		h6.449v7.578H1308.786z M1319.105,1030.698v-7.577h6.449v7.577H1319.105z M1319.105,1041.016v-7.577h6.449v7.577H1319.105z
		 M1319.105,1051.334v-7.577h6.449v7.577H1319.105z M1319.105,1061.654v-7.578h6.449v7.578H1319.105z M1319.105,1071.972v-7.578
		h6.449v7.578H1319.105z M1319.105,1082.291v-7.577h6.449v7.577H1319.105z M1319.105,1092.609v-7.577h6.449v7.577H1319.105z
		 M1319.105,1133.883v-7.577h6.449v7.577H1319.105z M1319.105,1144.202v-7.577h6.449v7.577H1319.105z M1319.105,1154.521v-7.578
		h6.449v7.578H1319.105z M1329.424,1030.698v-7.577h6.449v7.577H1329.424z M1329.424,1041.016v-7.577h6.449v7.577H1329.424z
		 M1329.424,1051.334v-7.577h6.449v7.577H1329.424z M1329.424,1061.654v-7.578h6.449v7.578H1329.424z M1329.424,1071.972v-7.578
		h6.449v7.578H1329.424z M1329.424,1082.291v-7.577h6.449v7.577H1329.424z M1329.424,1092.609v-7.577h6.449v7.577H1329.424z
		 M1329.424,1102.927v-7.577h6.449v7.577H1329.424z M1329.424,1133.883v-7.577h6.449v7.577H1329.424z M1329.424,1144.202v-7.577
		h6.449v7.577H1329.424z M1329.424,1154.521v-7.578h6.449v7.578H1329.424z M1339.742,1082.291v-7.577h6.449v7.577H1339.742z
		 M1339.742,1092.609v-7.577h6.449v7.577H1339.742z M1339.742,1102.927v-7.577h6.449v7.577H1339.742z M1339.742,1133.883v-7.577
		h6.449v7.577H1339.742z M1339.742,1144.202v-7.577h6.449v7.577H1339.742z M1339.742,1154.521v-7.578h6.449v7.578H1339.742z
		 M1350.061,1082.291v-7.577h6.449v7.577H1350.061z M1350.061,1092.609v-7.577h6.449v7.577H1350.061z M1350.061,1102.927v-7.577
		h6.449v7.577H1350.061z M1350.061,1133.883v-7.577h6.449v7.577H1350.061z M1350.061,1144.202v-7.577h6.449v7.577H1350.061z
		 M1350.061,1154.521v-7.578h6.449v7.578H1350.061z M1360.38,1082.291v-7.577h6.448v7.577H1360.38z M1360.38,1092.609v-7.577h6.448
		v7.577H1360.38z M1360.38,1102.927v-7.577h6.448v7.577H1360.38z M1360.38,1133.883v-7.577h6.448v7.577H1360.38z M1360.38,1144.202
		v-7.577h6.448v7.577H1360.38z M1360.38,1154.521v-7.578h6.448v7.578H1360.38z M1370.698,1082.291v-7.577h6.449v7.577H1370.698z
		 M1370.698,1092.609v-7.577h6.449v7.577H1370.698z M1370.698,1102.927v-7.577h6.449v7.577H1370.698z M1370.698,1133.883v-7.577
		h6.449v7.577H1370.698z M1370.698,1144.202v-7.577h6.449v7.577H1370.698z M1370.698,1154.521v-7.578h6.449v7.578H1370.698z
		 M1381.017,1082.291v-7.577h6.449v7.577H1381.017z M1381.017,1092.609v-7.577h6.449v7.577H1381.017z M1381.017,1102.927v-7.577
		h6.449v7.577H1381.017z M1381.017,1133.883v-7.577h6.449v7.577H1381.017z M1381.017,1144.202v-7.577h6.449v7.577H1381.017z
		 M1381.017,1154.521v-7.578h6.449v7.578H1381.017z M1391.335,1030.698v-7.577h6.449v7.577H1391.335z M1391.335,1041.016v-7.577
		h6.449v7.577H1391.335z M1391.335,1051.334v-7.577h6.449v7.577H1391.335z M1391.335,1061.654v-7.578h6.449v7.578H1391.335z
		 M1391.335,1071.972v-7.578h6.449v7.578H1391.335z M1391.335,1082.291v-7.577h6.449v7.577H1391.335z M1391.335,1092.609v-7.577
		h6.449v7.577H1391.335z M1391.335,1102.927v-7.577h6.449v7.577H1391.335z M1391.335,1113.247v-7.578h6.449v7.578H1391.335z
		 M1391.335,1123.565v-7.578h6.449v7.578H1391.335z M1391.335,1133.883v-7.577h6.449v7.577H1391.335z M1391.335,1144.202v-7.577
		h6.449v7.577H1391.335z M1391.335,1154.521v-7.578h6.449v7.578H1391.335z M1401.653,1030.698v-7.577h6.449v7.577H1401.653z
		 M1401.653,1041.016v-7.577h6.449v7.577H1401.653z M1401.653,1051.334v-7.577h6.449v7.577H1401.653z M1401.653,1061.654v-7.578
		h6.449v7.578H1401.653z M1401.653,1071.972v-7.578h6.449v7.578H1401.653z M1401.653,1082.291v-7.577h6.449v7.577H1401.653z
		 M1401.653,1092.609v-7.577h6.449v7.577H1401.653z M1401.653,1102.927v-7.577h6.449v7.577H1401.653z M1401.653,1113.247v-7.578
		h6.449v7.578H1401.653z M1401.653,1123.565v-7.578h6.449v7.578H1401.653z M1401.653,1133.883v-7.577h6.449v7.577H1401.653z
		 M1401.653,1144.202v-7.577h6.449v7.577H1401.653z M1411.973,1030.698v-7.577h6.448v7.577H1411.973z M1411.973,1041.016v-7.577
		h6.448v7.577H1411.973z M1411.973,1051.334v-7.577h6.448v7.577H1411.973z M1411.973,1061.654v-7.578h6.448v7.578H1411.973z
		 M1411.973,1071.972v-7.578h6.448v7.578H1411.973z M1411.973,1082.291v-7.577h6.448v7.577H1411.973z M1411.973,1092.609v-7.577
		h6.448v7.577H1411.973z M1411.973,1102.927v-7.577h6.448v7.577H1411.973z M1411.973,1113.247v-7.578h6.448v7.578H1411.973z
		 M1411.973,1123.565v-7.578h6.448v7.578H1411.973z M1411.973,1133.883v-7.577h6.448v7.577H1411.973z"/>
</g>
<g>
	<path fill="#1A2A6C" d="M201.48,1217.789l-9.012,10.674c-4.024-4.899-9.974-7.962-15.399-7.962c-9.712,0-17.061,7.7-17.061,17.762
		c0,10.236,7.349,18.023,17.061,18.023c5.162,0,11.112-2.8,15.399-7.175l9.1,9.625c-6.562,6.736-16.274,11.199-25.286,11.199
		c-18.461,0-32.197-13.562-32.197-31.498c0-17.674,14.086-30.973,32.723-30.973C185.906,1207.464,195.355,1211.489,201.48,1217.789z
		"/>
	<path fill="#1A2A6C" d="M249.6,1269.235v-23.799h-25.374v23.799h-15.574v-61.246h15.574v25.198H249.6v-25.198h15.574v61.246H249.6z
		"/>
	<path fill="#1A2A6C" d="M291.333,1257.948l-4.462,11.287h-16.011l26.423-61.246h16.011l25.811,61.246H322.48l-4.375-11.287H291.333
		z M304.807,1223.475l-8.924,22.661h17.674L304.807,1223.475z"/>
	<path fill="#1A2A6C" d="M344.789,1269.235v-61.246h15.574v61.246H344.789z"/>
	<path fill="#1A2A6C" d="M415.396,1269.235l-28.173-37.71v37.71h-14.611v-61.246h13.737l28.26,37.798v-37.798h14.524v61.246H415.396
		z"/>
	<path fill="#1A2A6C" d="M489.501,1251.999h-0.438h-11.812v17.236h-15.574v-61.246h27.386c16.186,0,25.46,7.7,25.46,21.349
		c0,9.362-3.937,16.099-11.111,19.687l12.861,20.211H498.6L489.501,1251.999z M489.063,1239.75c6.737,0,10.674-3.412,10.674-9.887
		c0-6.388-3.938-9.624-10.674-9.624h-11.812v19.511H489.063z"/>
	<path fill="#1A2A6C" d="M525.022,1269.235v-61.246h15.574v61.246H525.022z"/>
	<path fill="#1A2A6C" d="M607.003,1238.087v23.886c-6.562,4.637-16.886,7.962-25.46,7.962c-18.636,0-32.723-13.475-32.723-31.323
		c0-17.761,14.436-31.147,33.772-31.147c9.099,0,18.724,3.5,25.023,9.1l-8.75,10.586c-4.462-4.112-10.674-6.649-16.361-6.649
		c-10.062,0-17.761,7.875-17.761,18.111c0,10.412,7.787,18.286,17.936,18.286c3.15,0,7.174-1.137,10.849-2.975v-15.836H607.003z"/>
	<path fill="#1A2A6C" d="M658.798,1269.235v-23.799h-25.374v23.799h-15.574v-61.246h15.574v25.198h25.374v-25.198h15.574v61.246
		H658.798z"/>
	<path fill="#1A2A6C" d="M714.967,1220.5v48.734h-15.574V1220.5h-18.286v-12.599h52.321v12.599H714.967z"/>
	<path fill="#1A2A6C" d="M813.921,1269.235l-0.088-39.81l-14.699,33.685h-10.148l-14.7-33.685v39.81h-13.912v-61.333h17.062
		l16.624,36.484l16.623-36.484h16.975v61.333H813.921z"/>
	<path fill="#1A2A6C" d="M853.903,1257.948l-4.463,11.287h-16.012l26.424-61.246h16.012l25.811,61.246H885.05l-4.373-11.287H853.903
		z M867.376,1223.475l-8.924,22.661h17.674L867.376,1223.475z"/>
	<path fill="#1A2A6C" d="M950.144,1269.235l-28.172-37.71v37.71H907.36v-61.246h13.736l28.26,37.798v-37.798h14.523v61.246H950.144z
		"/>
	<path fill="#1A2A6C" d="M990.04,1257.948l-4.463,11.287h-16.012l26.424-61.246h16.012l25.811,61.246h-16.625l-4.373-11.287H990.04z
		 M1003.513,1223.475l-8.924,22.661h17.674L1003.513,1223.475z"/>
	<path fill="#1A2A6C" d="M1095.993,1238.087v23.886c-6.562,4.637-16.887,7.962-25.461,7.962c-18.637,0-32.723-13.475-32.723-31.323
		c0-17.761,14.436-31.147,33.771-31.147c9.1,0,18.725,3.5,25.023,9.1l-8.748,10.586c-4.463-4.112-10.676-6.649-16.361-6.649
		c-10.062,0-17.762,7.875-17.762,18.111c0,10.412,7.787,18.286,17.936,18.286c3.15,0,7.176-1.137,10.85-2.975v-15.836H1095.993z"/>
	<path fill="#1A2A6C" d="M1122.415,1220.239v12.161h29.223v12.249h-29.223v12.337h33.334v12.249h-48.908v-61.246h47.947v12.25
		H1122.415z"/>
	<path fill="#1A2A6C" d="M1219.356,1269.235l-0.088-39.81l-14.697,33.685h-10.15l-14.699-33.685v39.81h-13.91v-61.333h17.061
		l16.623,36.484l16.625-36.484h16.973v61.333H1219.356z"/>
	<path fill="#1A2A6C" d="M1261.001,1220.239v12.161h29.225v12.249h-29.225v12.337h33.336v12.249h-48.908v-61.246h47.945v12.25
		H1261.001z"/>
	<path fill="#1A2A6C" d="M1347.181,1269.235l-28.172-37.71v37.71h-14.611v-61.246h13.736l28.26,37.798v-37.798h14.523v61.246
		H1347.181z"/>
	<path fill="#1A2A6C" d="M1401.515,1220.5v48.734h-15.574V1220.5h-18.287v-12.599h52.322v12.599H1401.515z"/>
</g>
<image overflow="visible" width="270" height="711" xlink:href="../../../Desktop/Screen Shot 2017-10-21 at 7.40.55 PM.png"  transform="matrix(1 0 0 1 1814.8477 -355.4995)">
</image>
</svg>
