<?xml version="1.0" encoding="utf-8"?>
<!-- Generator: Adobe Illustrator 16.0.0, SVG Export Plug-In . SVG Version: 6.00 Build 0)  -->
<!DOCTYPE svg PUBLIC "-//W3C//DTD SVG 1.1//EN" "http://www.w3.org/Graphics/SVG/1.1/DTD/svg11.dtd">
<svg version="1.1" id="Layer_1" xmlns="http://www.w3.org/2000/svg" xmlns:xlink="http://www.w3.org/1999/xlink" x="0px" y="0px"
	 width="973.868px" height="1141.884px" viewBox="0 0 973.868 1141.884" enable-background="new 0 0 973.868 1141.884"
	 xml:space="preserve">
<linearGradient id="SVGID_1_" gradientUnits="userSpaceOnUse" x1="568.8057" y1="27.1411" x2="568.8056" y2="815.6533">
	<stop  offset="0" style="stop-color:#FDBB2D"/>
	<stop  offset="0.6034" style="stop-color:#B21F1F"/>
	<stop  offset="1" style="stop-color:#1A2A6C"/>
</linearGradient>
<path fill="url(#SVGID_1_)" d="M568.807,815.653L568.807,815.653c-31.102,0-56.32-25.221-56.32-56.318V83.46
	c0-31.103,25.219-56.319,56.32-56.319l0,0c31.105,0,56.318,25.217,56.318,56.319v675.875
	C625.125,790.432,599.912,815.653,568.807,815.653z"/>
<linearGradient id="SVGID_2_" gradientUnits="userSpaceOnUse" x1="95.7197" y1="365.0732" x2="95.7197" y2="477.7236">
	<stop  offset="0" style="stop-color:#FDBB2D"/>
	<stop  offset="0.8268" style="stop-color:#B21F1F"/>
</linearGradient>
<path fill="url(#SVGID_2_)" d="M95.719,477.724L95.719,477.724c-31.106,0-56.322-25.22-56.322-56.326l0,0
	c0-31.107,25.216-56.324,56.322-56.324l0,0c31.107,0,56.324,25.217,56.324,56.324l0,0
	C152.043,452.504,126.826,477.724,95.719,477.724z"/>
<linearGradient id="SVGID_3_" gradientUnits="userSpaceOnUse" x1="242.686" y1="252.4316" x2="242.686" y2="759.335">
	<stop  offset="0" style="stop-color:#FDBB2D"/>
	<stop  offset="0.4804" style="stop-color:#B21F1F"/>
	<stop  offset="1" style="stop-color:#1A2A6C"/>
</linearGradient>
<path fill="url(#SVGID_3_)" d="M242.686,759.335L242.686,759.335c-31.107,0-56.323-25.221-56.323-56.326V308.753
	c0-31.105,25.216-56.321,56.323-56.321l0,0c31.107,0,56.324,25.216,56.324,56.321v394.256
	C299.01,734.114,273.793,759.335,242.686,759.335z"/>
<linearGradient id="SVGID_4_" gradientUnits="userSpaceOnUse" x1="411.6499" y1="139.7847" x2="411.6499" y2="590.3613">
	<stop  offset="0" style="stop-color:#FDBB2D"/>
	<stop  offset="0.4804" style="stop-color:#B21F1F"/>
	<stop  offset="1" style="stop-color:#1A2A6C"/>
</linearGradient>
<path fill="url(#SVGID_4_)" d="M411.646,590.361L411.646,590.361c-31.1,0-56.32-25.218-56.32-56.319V196.107
	c0-31.106,25.221-56.322,56.32-56.322l0,0c31.114,0,56.327,25.216,56.327,56.322v337.935
	C467.974,565.144,442.761,590.361,411.646,590.361z"/>
<linearGradient id="SVGID_5_" gradientUnits="userSpaceOnUse" x1="722.7656" y1="122.7827" x2="722.7656" y2="460.7197">
	<stop  offset="0" style="stop-color:#FDBB2D"/>
	<stop  offset="0.4804" style="stop-color:#B21F1F"/>
	<stop  offset="1" style="stop-color:#1A2A6C"/>
</linearGradient>
<path fill="url(#SVGID_5_)" d="M722.766,460.72L722.766,460.72c-31.107,0-56.32-25.219-56.32-56.325v-225.29
	c0-31.106,25.213-56.322,56.32-56.322l0,0c31.101,0,56.32,25.216,56.32,56.322v225.29
	C779.086,435.501,753.866,460.72,722.766,460.72z"/>
<linearGradient id="SVGID_6_" gradientUnits="userSpaceOnUse" x1="882.2314" y1="347.0713" x2="882.2314" y2="459.7197">
	<stop  offset="0" style="stop-color:#FDBB2D"/>
	<stop  offset="0.9419" style="stop-color:#B21F1F"/>
</linearGradient>
<path fill="url(#SVGID_6_)" d="M882.235,459.72L882.235,459.72c-31.114,0-56.327-25.219-56.327-56.325l0,0
	c0-31.108,25.213-56.323,56.327-56.323l0,0c31.099,0,56.319,25.215,56.319,56.323l0,0
	C938.555,434.501,913.334,459.72,882.235,459.72z"/>
<g>
	<path fill="#1A2A6C" stroke="#1A2A6C" stroke-width="0.7031" stroke-miterlimit="10" d="M40.819,934.805v-5.328h4.535v5.328H40.819
		z M40.819,942.06v-5.328h4.535v5.328H40.819z M40.819,949.315v-5.328h4.535v5.328H40.819z M40.819,956.572v-5.328h4.535v5.328
		H40.819z M40.819,963.827v-5.328h4.535v5.328H40.819z M40.819,971.082v-5.327h4.535v5.327H40.819z M40.819,978.337v-5.328h4.535
		v5.328H40.819z M40.819,985.593v-5.328h4.535v5.328H40.819z M40.819,992.849v-5.329h4.535v5.329H40.819z M40.819,1000.104v-5.329
		h4.535v5.329H40.819z M40.819,1007.36v-5.328h4.535v5.328H40.819z M40.819,1014.615v-5.328h4.535v5.328H40.819z M40.819,1021.871
		v-5.328h4.535v5.328H40.819z M48.074,934.805v-5.328h4.535v5.328H48.074z M48.074,942.06v-5.328h4.535v5.328H48.074z
		 M48.074,949.315v-5.328h4.535v5.328H48.074z M48.074,956.572v-5.328h4.535v5.328H48.074z M48.074,963.827v-5.328h4.535v5.328
		H48.074z M48.074,971.082v-5.327h4.535v5.327H48.074z M48.074,978.337v-5.328h4.535v5.328H48.074z M48.074,985.593v-5.328h4.535
		v5.328H48.074z M48.074,992.849v-5.329h4.535v5.329H48.074z M48.074,1000.104v-5.329h4.535v5.329H48.074z M48.074,1007.36v-5.328
		h4.535v5.328H48.074z M48.074,1014.615v-5.328h4.535v5.328H48.074z M48.074,1021.871v-5.328h4.535v5.328H48.074z M55.33,934.805
		v-5.328h4.535v5.328H55.33z M55.33,942.06v-5.328h4.535v5.328H55.33z M55.33,949.315v-5.328h4.535v5.328H55.33z M55.33,956.572
		v-5.328h4.535v5.328H55.33z M55.33,963.827v-5.328h4.535v5.328H55.33z M55.33,971.082v-5.327h4.535v5.327H55.33z M55.33,978.337
		v-5.328h4.535v5.328H55.33z M55.33,985.593v-5.328h4.535v5.328H55.33z M55.33,992.849v-5.329h4.535v5.329H55.33z M55.33,1000.104
		v-5.329h4.535v5.329H55.33z M55.33,1007.36v-5.328h4.535v5.328H55.33z M55.33,1014.615v-5.328h4.535v5.328H55.33z M55.33,1021.871
		v-5.328h4.535v5.328H55.33z M62.586,934.805v-5.328h4.535v5.328H62.586z M62.586,942.06v-5.328h4.535v5.328H62.586z
		 M62.586,949.315v-5.328h4.535v5.328H62.586z M62.586,971.082v-5.327h4.535v5.327H62.586z M62.586,978.337v-5.328h4.535v5.328
		H62.586z M62.586,985.593v-5.328h4.535v5.328H62.586z M62.586,1007.36v-5.328h4.535v5.328H62.586z M62.586,1014.615v-5.328h4.535
		v5.328H62.586z M62.586,1021.871v-5.328h4.535v5.328H62.586z M69.841,934.805v-5.328h4.535v5.328H69.841z M69.841,942.06v-5.328
		h4.535v5.328H69.841z M69.841,949.315v-5.328h4.535v5.328H69.841z M69.841,971.082v-5.327h4.535v5.327H69.841z M69.841,978.337
		v-5.328h4.535v5.328H69.841z M69.841,985.593v-5.328h4.535v5.328H69.841z M69.841,1007.36v-5.328h4.535v5.328H69.841z
		 M69.841,1014.615v-5.328h4.535v5.328H69.841z M69.841,1021.871v-5.328h4.535v5.328H69.841z M77.097,934.805v-5.328h4.535v5.328
		H77.097z M77.097,942.06v-5.328h4.535v5.328H77.097z M77.097,949.315v-5.328h4.535v5.328H77.097z M77.097,971.082v-5.327h4.535
		v5.327H77.097z M77.097,978.337v-5.328h4.535v5.328H77.097z M77.097,985.593v-5.328h4.535v5.328H77.097z M77.097,1007.36v-5.328
		h4.535v5.328H77.097z M77.097,1014.615v-5.328h4.535v5.328H77.097z M77.097,1021.871v-5.328h4.535v5.328H77.097z M84.352,934.805
		v-5.328h4.535v5.328H84.352z M84.352,942.06v-5.328h4.535v5.328H84.352z M84.352,949.315v-5.328h4.535v5.328H84.352z
		 M84.352,971.082v-5.327h4.535v5.327H84.352z M84.352,978.337v-5.328h4.535v5.328H84.352z M84.352,985.593v-5.328h4.535v5.328
		H84.352z M84.352,1007.36v-5.328h4.535v5.328H84.352z M84.352,1014.615v-5.328h4.535v5.328H84.352z M84.352,1021.871v-5.328h4.535
		v5.328H84.352z M91.608,934.805v-5.328h4.535v5.328H91.608z M91.608,942.06v-5.328h4.535v5.328H91.608z M91.608,949.315v-5.328
		h4.535v5.328H91.608z M91.608,971.082v-5.327h4.535v5.327H91.608z M91.608,978.337v-5.328h4.535v5.328H91.608z M91.608,985.593
		v-5.328h4.535v5.328H91.608z M91.608,1007.36v-5.328h4.535v5.328H91.608z M91.608,1014.615v-5.328h4.535v5.328H91.608z
		 M91.608,1021.871v-5.328h4.535v5.328H91.608z M98.863,934.805v-5.328h4.535v5.328H98.863z M98.863,942.06v-5.328h4.535v5.328
		H98.863z M98.863,949.315v-5.328h4.535v5.328H98.863z M98.863,956.572v-5.328h4.535v5.328H98.863z M98.863,963.827v-5.328h4.535
		v5.328H98.863z M98.863,971.082v-5.327h4.535v5.327H98.863z M98.863,978.337v-5.328h4.535v5.328H98.863z M98.863,985.593v-5.328
		h4.535v5.328H98.863z M98.863,992.849v-5.329h4.535v5.329H98.863z M98.863,1000.104v-5.329h4.535v5.329H98.863z M98.863,1007.36
		v-5.328h4.535v5.328H98.863z M98.863,1014.615v-5.328h4.535v5.328H98.863z M98.863,1021.871v-5.328h4.535v5.328H98.863z
		 M106.119,942.06v-5.328h4.534v5.328H106.119z M106.119,949.315v-5.328h4.534v5.328H106.119z M106.119,956.572v-5.328h4.534v5.328
		H106.119z M106.119,963.827v-5.328h4.534v5.328H106.119z M106.119,971.082v-5.327h4.534v5.327H106.119z M106.119,978.337v-5.328
		h4.534v5.328H106.119z M106.119,985.593v-5.328h4.534v5.328H106.119z M106.119,992.849v-5.329h4.534v5.329H106.119z
		 M106.119,1000.104v-5.329h4.534v5.329H106.119z M106.119,1007.36v-5.328h4.534v5.328H106.119z M106.119,1014.615v-5.328h4.534
		v5.328H106.119z M113.375,949.315v-5.328h4.534v5.328H113.375z M113.375,956.572v-5.328h4.534v5.328H113.375z M113.375,963.827
		v-5.328h4.534v5.328H113.375z M113.375,971.082v-5.327h4.534v5.327H113.375z M113.375,985.593v-5.328h4.534v5.328H113.375z
		 M113.375,992.849v-5.329h4.534v5.329H113.375z M113.375,1000.104v-5.329h4.534v5.329H113.375z M113.375,1007.36v-5.328h4.534
		v5.328H113.375z"/>
	<path fill="#1A2A6C" stroke="#1A2A6C" stroke-width="0.7031" stroke-miterlimit="10" d="M127.885,934.805v-5.328h4.535v5.328
		H127.885z M127.885,942.06v-5.328h4.535v5.328H127.885z M127.885,949.315v-5.328h4.535v5.328H127.885z M127.885,956.572v-5.328
		h4.535v5.328H127.885z M127.885,963.827v-5.328h4.535v5.328H127.885z M127.885,971.082v-5.327h4.535v5.327H127.885z
		 M127.885,978.337v-5.328h4.535v5.328H127.885z M127.885,985.593v-5.328h4.535v5.328H127.885z M127.885,992.849v-5.329h4.535v5.329
		H127.885z M127.885,1000.104v-5.329h4.535v5.329H127.885z M127.885,1007.36v-5.328h4.535v5.328H127.885z M127.885,1014.615v-5.328
		h4.535v5.328H127.885z M127.885,1021.871v-5.328h4.535v5.328H127.885z M135.14,934.805v-5.328h4.535v5.328H135.14z M135.14,942.06
		v-5.328h4.535v5.328H135.14z M135.14,949.315v-5.328h4.535v5.328H135.14z M135.14,956.572v-5.328h4.535v5.328H135.14z
		 M135.14,963.827v-5.328h4.535v5.328H135.14z M135.14,971.082v-5.327h4.535v5.327H135.14z M135.14,978.337v-5.328h4.535v5.328
		H135.14z M135.14,985.593v-5.328h4.535v5.328H135.14z M135.14,992.849v-5.329h4.535v5.329H135.14z M135.14,1000.104v-5.329h4.535
		v5.329H135.14z M135.14,1007.36v-5.328h4.535v5.328H135.14z M135.14,1014.615v-5.328h4.535v5.328H135.14z M135.14,1021.871v-5.328
		h4.535v5.328H135.14z M142.396,934.805v-5.328h4.535v5.328H142.396z M142.396,942.06v-5.328h4.535v5.328H142.396z M142.396,949.315
		v-5.328h4.535v5.328H142.396z M142.396,956.572v-5.328h4.535v5.328H142.396z M142.396,963.827v-5.328h4.535v5.328H142.396z
		 M142.396,971.082v-5.327h4.535v5.327H142.396z M142.396,978.337v-5.328h4.535v5.328H142.396z M142.396,985.593v-5.328h4.535v5.328
		H142.396z M142.396,992.849v-5.329h4.535v5.329H142.396z M142.396,1000.104v-5.329h4.535v5.329H142.396z M142.396,1007.36v-5.328
		h4.535v5.328H142.396z M142.396,1014.615v-5.328h4.535v5.328H142.396z M142.396,1021.871v-5.328h4.535v5.328H142.396z
		 M149.651,1007.36v-5.328h4.535v5.328H149.651z M149.651,1014.615v-5.328h4.535v5.328H149.651z M149.651,1021.871v-5.328h4.535
		v5.328H149.651z M156.907,1007.36v-5.328h4.534v5.328H156.907z M156.907,1014.615v-5.328h4.534v5.328H156.907z M156.907,1021.871
		v-5.328h4.534v5.328H156.907z M164.162,1007.36v-5.328h4.535v5.328H164.162z M164.162,1014.615v-5.328h4.535v5.328H164.162z
		 M164.162,1021.871v-5.328h4.535v5.328H164.162z M171.418,1007.36v-5.328h4.534v5.328H171.418z M171.418,1014.615v-5.328h4.534
		v5.328H171.418z M171.418,1021.871v-5.328h4.534v5.328H171.418z M178.673,1007.36v-5.328h4.535v5.328H178.673z M178.673,1014.615
		v-5.328h4.535v5.328H178.673z M178.673,1021.871v-5.328h4.535v5.328H178.673z M185.929,1007.36v-5.328h4.535v5.328H185.929z
		 M185.929,1014.615v-5.328h4.535v5.328H185.929z M185.929,1021.871v-5.328h4.535v5.328H185.929z M193.185,1007.36v-5.328h4.534
		v5.328H193.185z M193.185,1014.615v-5.328h4.534v5.328H193.185z M193.185,1021.871v-5.328h4.534v5.328H193.185z M200.44,1007.36
		v-5.328h4.534v5.328H200.44z M200.44,1014.615v-5.328h4.534v5.328H200.44z M200.44,1021.871v-5.328h4.534v5.328H200.44z"/>
	<path fill="#1A2A6C" stroke="#1A2A6C" stroke-width="0.7031" stroke-miterlimit="10" d="M214.951,949.315v-5.328h4.535v5.328
		H214.951z M214.951,956.572v-5.328h4.535v5.328H214.951z M214.951,963.827v-5.328h4.535v5.328H214.951z M214.951,971.082v-5.327
		h4.535v5.327H214.951z M214.951,978.337v-5.328h4.535v5.328H214.951z M214.951,985.593v-5.328h4.535v5.328H214.951z
		 M214.951,992.849v-5.329h4.535v5.329H214.951z M214.951,1000.104v-5.329h4.535v5.329H214.951z M214.951,1007.36v-5.328h4.535
		v5.328H214.951z M222.206,942.06v-5.328h4.535v5.328H222.206z M222.206,949.315v-5.328h4.535v5.328H222.206z M222.206,956.572
		v-5.328h4.535v5.328H222.206z M222.206,963.827v-5.328h4.535v5.328H222.206z M222.206,971.082v-5.327h4.535v5.327H222.206z
		 M222.206,978.337v-5.328h4.535v5.328H222.206z M222.206,985.593v-5.328h4.535v5.328H222.206z M222.206,992.849v-5.329h4.535v5.329
		H222.206z M222.206,1000.104v-5.329h4.535v5.329H222.206z M222.206,1007.36v-5.328h4.535v5.328H222.206z M222.206,1014.615v-5.328
		h4.535v5.328H222.206z M229.461,934.805v-5.328h4.535v5.328H229.461z M229.461,942.06v-5.328h4.535v5.328H229.461z
		 M229.461,949.315v-5.328h4.535v5.328H229.461z M229.461,956.572v-5.328h4.535v5.328H229.461z M229.461,963.827v-5.328h4.535v5.328
		H229.461z M229.461,971.082v-5.327h4.535v5.327H229.461z M229.461,978.337v-5.328h4.535v5.328H229.461z M229.461,985.593v-5.328
		h4.535v5.328H229.461z M229.461,992.849v-5.329h4.535v5.329H229.461z M229.461,1000.104v-5.329h4.535v5.329H229.461z
		 M229.461,1007.36v-5.328h4.535v5.328H229.461z M229.461,1014.615v-5.328h4.535v5.328H229.461z M229.461,1021.871v-5.328h4.535
		v5.328H229.461z M236.717,934.805v-5.328h4.535v5.328H236.717z M236.717,942.06v-5.328h4.535v5.328H236.717z M236.717,949.315
		v-5.328h4.535v5.328H236.717z M236.717,1007.36v-5.328h4.535v5.328H236.717z M236.717,1014.615v-5.328h4.535v5.328H236.717z
		 M236.717,1021.871v-5.328h4.535v5.328H236.717z M243.973,934.805v-5.328h4.535v5.328H243.973z M243.973,942.06v-5.328h4.535v5.328
		H243.973z M243.973,949.315v-5.328h4.535v5.328H243.973z M243.973,1007.36v-5.328h4.535v5.328H243.973z M243.973,1014.615v-5.328
		h4.535v5.328H243.973z M243.973,1021.871v-5.328h4.535v5.328H243.973z M251.228,934.805v-5.328h4.535v5.328H251.228z
		 M251.228,942.06v-5.328h4.535v5.328H251.228z M251.228,949.315v-5.328h4.535v5.328H251.228z M251.228,1007.36v-5.328h4.535v5.328
		H251.228z M251.228,1014.615v-5.328h4.535v5.328H251.228z M251.228,1021.871v-5.328h4.535v5.328H251.228z M258.483,934.805v-5.328
		h4.535v5.328H258.483z M258.483,942.06v-5.328h4.535v5.328H258.483z M258.483,949.315v-5.328h4.535v5.328H258.483z
		 M258.483,1007.36v-5.328h4.535v5.328H258.483z M258.483,1014.615v-5.328h4.535v5.328H258.483z M258.483,1021.871v-5.328h4.535
		v5.328H258.483z M265.739,934.805v-5.328h4.535v5.328H265.739z M265.739,942.06v-5.328h4.535v5.328H265.739z M265.739,949.315
		v-5.328h4.535v5.328H265.739z M265.739,1007.36v-5.328h4.535v5.328H265.739z M265.739,1014.615v-5.328h4.535v5.328H265.739z
		 M265.739,1021.871v-5.328h4.535v5.328H265.739z M272.995,934.805v-5.328h4.535v5.328H272.995z M272.995,942.06v-5.328h4.535v5.328
		H272.995z M272.995,949.315v-5.328h4.535v5.328H272.995z M272.995,956.572v-5.328h4.535v5.328H272.995z M272.995,963.827v-5.328
		h4.535v5.328H272.995z M272.995,971.082v-5.327h4.535v5.327H272.995z M272.995,978.337v-5.328h4.535v5.328H272.995z
		 M272.995,985.593v-5.328h4.535v5.328H272.995z M272.995,992.849v-5.329h4.535v5.329H272.995z M272.995,1000.104v-5.329h4.535
		v5.329H272.995z M272.995,1007.36v-5.328h4.535v5.328H272.995z M272.995,1014.615v-5.328h4.535v5.328H272.995z M272.995,1021.871
		v-5.328h4.535v5.328H272.995z M280.25,942.06v-5.328h4.534v5.328H280.25z M280.25,949.315v-5.328h4.534v5.328H280.25z
		 M280.25,956.572v-5.328h4.534v5.328H280.25z M280.25,963.827v-5.328h4.534v5.328H280.25z M280.25,971.082v-5.327h4.534v5.327
		H280.25z M280.25,978.337v-5.328h4.534v5.328H280.25z M280.25,985.593v-5.328h4.534v5.328H280.25z M280.25,992.849v-5.329h4.534
		v5.329H280.25z M280.25,1000.104v-5.329h4.534v5.329H280.25z M280.25,1007.36v-5.328h4.534v5.328H280.25z M280.25,1014.615v-5.328
		h4.534v5.328H280.25z M287.506,949.315v-5.328h4.534v5.328H287.506z M287.506,956.572v-5.328h4.534v5.328H287.506z
		 M287.506,963.827v-5.328h4.534v5.328H287.506z M287.506,971.082v-5.327h4.534v5.327H287.506z M287.506,978.337v-5.328h4.534v5.328
		H287.506z M287.506,985.593v-5.328h4.534v5.328H287.506z M287.506,992.849v-5.329h4.534v5.329H287.506z M287.506,1000.104v-5.329
		h4.534v5.329H287.506z M287.506,1007.36v-5.328h4.534v5.328H287.506z"/>
	<path fill="#1A2A6C" stroke="#1A2A6C" stroke-width="0.7031" stroke-miterlimit="10" d="M302.017,949.315v-5.328h4.535v5.328
		H302.017z M302.017,956.572v-5.328h4.535v5.328H302.017z M302.017,963.827v-5.328h4.535v5.328H302.017z M302.017,971.082v-5.327
		h4.535v5.327H302.017z M302.017,978.337v-5.328h4.535v5.328H302.017z M302.017,985.593v-5.328h4.535v5.328H302.017z
		 M302.017,992.849v-5.329h4.535v5.329H302.017z M302.017,1000.104v-5.329h4.535v5.329H302.017z M302.017,1007.36v-5.328h4.535
		v5.328H302.017z M309.271,942.06v-5.328h4.535v5.328H309.271z M309.271,949.315v-5.328h4.535v5.328H309.271z M309.271,956.572
		v-5.328h4.535v5.328H309.271z M309.271,963.827v-5.328h4.535v5.328H309.271z M309.271,971.082v-5.327h4.535v5.327H309.271z
		 M309.271,978.337v-5.328h4.535v5.328H309.271z M309.271,985.593v-5.328h4.535v5.328H309.271z M309.271,992.849v-5.329h4.535v5.329
		H309.271z M309.271,1000.104v-5.329h4.535v5.329H309.271z M309.271,1007.36v-5.328h4.535v5.328H309.271z M309.271,1014.615v-5.328
		h4.535v5.328H309.271z M316.527,934.805v-5.328h4.535v5.328H316.527z M316.527,942.06v-5.328h4.535v5.328H316.527z
		 M316.527,949.315v-5.328h4.535v5.328H316.527z M316.527,956.572v-5.328h4.535v5.328H316.527z M316.527,963.827v-5.328h4.535v5.328
		H316.527z M316.527,971.082v-5.327h4.535v5.327H316.527z M316.527,978.337v-5.328h4.535v5.328H316.527z M316.527,985.593v-5.328
		h4.535v5.328H316.527z M316.527,992.849v-5.329h4.535v5.329H316.527z M316.527,1000.104v-5.329h4.535v5.329H316.527z
		 M316.527,1007.36v-5.328h4.535v5.328H316.527z M316.527,1014.615v-5.328h4.535v5.328H316.527z M316.527,1021.871v-5.328h4.535
		v5.328H316.527z M323.783,934.805v-5.328h4.535v5.328H323.783z M323.783,942.06v-5.328h4.535v5.328H323.783z M323.783,949.315
		v-5.328h4.535v5.328H323.783z M323.783,1007.36v-5.328h4.535v5.328H323.783z M323.783,1014.615v-5.328h4.535v5.328H323.783z
		 M323.783,1021.871v-5.328h4.535v5.328H323.783z M331.039,934.805v-5.328h4.534v5.328H331.039z M331.039,942.06v-5.328h4.534v5.328
		H331.039z M331.039,949.315v-5.328h4.534v5.328H331.039z M331.039,1007.36v-5.328h4.534v5.328H331.039z M331.039,1014.615v-5.328
		h4.534v5.328H331.039z M331.039,1021.871v-5.328h4.534v5.328H331.039z M338.294,934.805v-5.328h4.535v5.328H338.294z
		 M338.294,942.06v-5.328h4.535v5.328H338.294z M338.294,949.315v-5.328h4.535v5.328H338.294z M338.294,1007.36v-5.328h4.535v5.328
		H338.294z M338.294,1014.615v-5.328h4.535v5.328H338.294z M338.294,1021.871v-5.328h4.535v5.328H338.294z M345.549,934.805v-5.328
		h4.534v5.328H345.549z M345.549,942.06v-5.328h4.534v5.328H345.549z M345.549,949.315v-5.328h4.534v5.328H345.549z
		 M345.549,1007.36v-5.328h4.534v5.328H345.549z M345.549,1014.615v-5.328h4.534v5.328H345.549z M345.549,1021.871v-5.328h4.534
		v5.328H345.549z M352.805,934.805v-5.328h4.535v5.328H352.805z M352.805,942.06v-5.328h4.535v5.328H352.805z M352.805,949.315
		v-5.328h4.535v5.328H352.805z M352.805,1007.36v-5.328h4.535v5.328H352.805z M352.805,1014.615v-5.328h4.535v5.328H352.805z
		 M352.805,1021.871v-5.328h4.535v5.328H352.805z M360.06,934.805v-5.328h4.535v5.328H360.06z M360.06,942.06v-5.328h4.535v5.328
		H360.06z M360.06,949.315v-5.328h4.535v5.328H360.06z M360.06,956.572v-5.328h4.535v5.328H360.06z M360.06,963.827v-5.328h4.535
		v5.328H360.06z M360.06,992.849v-5.329h4.535v5.329H360.06z M360.06,1000.104v-5.329h4.535v5.329H360.06z M360.06,1007.36v-5.328
		h4.535v5.328H360.06z M360.06,1014.615v-5.328h4.535v5.328H360.06z M360.06,1021.871v-5.328h4.535v5.328H360.06z M367.316,942.06
		v-5.328h4.534v5.328H367.316z M367.316,949.315v-5.328h4.534v5.328H367.316z M367.316,956.572v-5.328h4.534v5.328H367.316z
		 M367.316,963.827v-5.328h4.534v5.328H367.316z M367.316,992.849v-5.329h4.534v5.329H367.316z M367.316,1000.104v-5.329h4.534
		v5.329H367.316z M367.316,1007.36v-5.328h4.534v5.328H367.316z M367.316,1014.615v-5.328h4.534v5.328H367.316z M374.571,949.315
		v-5.328h4.535v5.328H374.571z M374.571,956.572v-5.328h4.535v5.328H374.571z M374.571,963.827v-5.328h4.535v5.328H374.571z
		 M374.571,992.849v-5.329h4.535v5.329H374.571z M374.571,1000.104v-5.329h4.535v5.329H374.571z M374.571,1007.36v-5.328h4.535
		v5.328H374.571z"/>
	<path fill="#1A2A6C" stroke="#1A2A6C" stroke-width="0.7031" stroke-miterlimit="10" d="M389.082,934.805v-5.328h4.535v5.328
		H389.082z M389.082,942.06v-5.328h4.535v5.328H389.082z M389.082,949.315v-5.328h4.535v5.328H389.082z M389.082,956.572v-5.328
		h4.535v5.328H389.082z M389.082,963.827v-5.328h4.535v5.328H389.082z M389.082,971.082v-5.327h4.535v5.327H389.082z
		 M389.082,978.337v-5.328h4.535v5.328H389.082z M389.082,985.593v-5.328h4.535v5.328H389.082z M389.082,992.849v-5.329h4.535v5.329
		H389.082z M389.082,1000.104v-5.329h4.535v5.329H389.082z M389.082,1007.36v-5.328h4.535v5.328H389.082z M389.082,1014.615v-5.328
		h4.535v5.328H389.082z M389.082,1021.871v-5.328h4.535v5.328H389.082z M396.337,934.805v-5.328h4.535v5.328H396.337z
		 M396.337,942.06v-5.328h4.535v5.328H396.337z M396.337,949.315v-5.328h4.535v5.328H396.337z M396.337,956.572v-5.328h4.535v5.328
		H396.337z M396.337,963.827v-5.328h4.535v5.328H396.337z M396.337,971.082v-5.327h4.535v5.327H396.337z M396.337,978.337v-5.328
		h4.535v5.328H396.337z M396.337,985.593v-5.328h4.535v5.328H396.337z M396.337,992.849v-5.329h4.535v5.329H396.337z
		 M396.337,1000.104v-5.329h4.535v5.329H396.337z M396.337,1007.36v-5.328h4.535v5.328H396.337z M396.337,1014.615v-5.328h4.535
		v5.328H396.337z M396.337,1021.871v-5.328h4.535v5.328H396.337z M403.593,934.805v-5.328h4.535v5.328H403.593z M403.593,942.06
		v-5.328h4.535v5.328H403.593z M403.593,949.315v-5.328h4.535v5.328H403.593z M403.593,956.572v-5.328h4.535v5.328H403.593z
		 M403.593,963.827v-5.328h4.535v5.328H403.593z M403.593,971.082v-5.327h4.535v5.327H403.593z M403.593,978.337v-5.328h4.535v5.328
		H403.593z M403.593,985.593v-5.328h4.535v5.328H403.593z M403.593,992.849v-5.329h4.535v5.329H403.593z M403.593,1000.104v-5.329
		h4.535v5.329H403.593z M403.593,1007.36v-5.328h4.535v5.328H403.593z M403.593,1014.615v-5.328h4.535v5.328H403.593z
		 M403.593,1021.871v-5.328h4.535v5.328H403.593z M410.849,956.572v-5.328h4.535v5.328H410.849z M410.849,963.827v-5.328h4.535
		v5.328H410.849z M410.849,971.082v-5.327h4.535v5.327H410.849z M410.849,978.337v-5.328h4.535v5.328H410.849z M410.849,985.593
		v-5.328h4.535v5.328H410.849z M410.849,992.849v-5.329h4.535v5.329H410.849z M410.849,1000.104v-5.329h4.535v5.329H410.849z
		 M418.104,949.315v-5.328h4.534v5.328H418.104z M418.104,956.572v-5.328h4.534v5.328H418.104z M418.104,963.827v-5.328h4.534v5.328
		H418.104z M418.104,971.082v-5.327h4.534v5.327H418.104z M418.104,978.337v-5.328h4.534v5.328H418.104z M418.104,985.593v-5.328
		h4.534v5.328H418.104z M418.104,992.849v-5.329h4.534v5.329H418.104z M418.104,1000.104v-5.329h4.534v5.329H418.104z
		 M418.104,1007.36v-5.328h4.534v5.328H418.104z M425.359,942.06v-5.328h4.535v5.328H425.359z M425.359,949.315v-5.328h4.535v5.328
		H425.359z M425.359,956.572v-5.328h4.535v5.328H425.359z M425.359,963.827v-5.328h4.535v5.328H425.359z M425.359,971.082v-5.327
		h4.535v5.327H425.359z M425.359,985.593v-5.328h4.535v5.328H425.359z M425.359,992.849v-5.329h4.535v5.329H425.359z
		 M425.359,1000.104v-5.329h4.535v5.329H425.359z M425.359,1007.36v-5.328h4.535v5.328H425.359z M425.359,1014.615v-5.328h4.535
		v5.328H425.359z M432.615,934.805v-5.328h4.534v5.328H432.615z M432.615,942.06v-5.328h4.534v5.328H432.615z M432.615,949.315
		v-5.328h4.534v5.328H432.615z M432.615,956.572v-5.328h4.534v5.328H432.615z M432.615,963.827v-5.328h4.534v5.328H432.615z
		 M432.615,992.849v-5.329h4.534v5.329H432.615z M432.615,1000.104v-5.329h4.534v5.329H432.615z M432.615,1007.36v-5.328h4.534
		v5.328H432.615z M432.615,1014.615v-5.328h4.534v5.328H432.615z M432.615,1021.871v-5.328h4.534v5.328H432.615z M439.871,934.805
		v-5.328h4.535v5.328H439.871z M439.871,942.06v-5.328h4.535v5.328H439.871z M439.871,949.315v-5.328h4.535v5.328H439.871z
		 M439.871,956.572v-5.328h4.535v5.328H439.871z M439.871,1000.104v-5.329h4.535v5.329H439.871z M439.871,1007.36v-5.328h4.535
		v5.328H439.871z M439.871,1014.615v-5.328h4.535v5.328H439.871z M439.871,1021.871v-5.328h4.535v5.328H439.871z M447.126,934.805
		v-5.328h4.535v5.328H447.126z M447.126,942.06v-5.328h4.535v5.328H447.126z M447.126,949.315v-5.328h4.535v5.328H447.126z
		 M447.126,1007.36v-5.328h4.535v5.328H447.126z M447.126,1014.615v-5.328h4.535v5.328H447.126z M447.126,1021.871v-5.328h4.535
		v5.328H447.126z M454.381,934.805v-5.328h4.535v5.328H454.381z M454.381,942.06v-5.328h4.535v5.328H454.381z M454.381,1014.615
		v-5.328h4.535v5.328H454.381z M454.381,1021.871v-5.328h4.535v5.328H454.381z M461.637,934.805v-5.328h4.534v5.328H461.637z
		 M461.637,1021.871v-5.328h4.534v5.328H461.637z"/>
	<path fill="#1A2A6C" stroke="#1A2A6C" stroke-width="0.7031" stroke-miterlimit="10" d="M512.425,934.805v-5.328h4.535v5.328
		H512.425z M512.425,942.06v-5.328h4.535v5.328H512.425z M512.425,949.315v-5.328h4.535v5.328H512.425z M512.425,956.572v-5.328
		h4.535v5.328H512.425z M512.425,963.827v-5.328h4.535v5.328H512.425z M512.425,971.082v-5.327h4.535v5.327H512.425z
		 M512.425,978.337v-5.328h4.535v5.328H512.425z M512.425,985.593v-5.328h4.535v5.328H512.425z M512.425,992.849v-5.329h4.535v5.329
		H512.425z M512.425,1000.104v-5.329h4.535v5.329H512.425z M512.425,1007.36v-5.328h4.535v5.328H512.425z M512.425,1014.615v-5.328
		h4.535v5.328H512.425z M512.425,1021.871v-5.328h4.535v5.328H512.425z M519.681,934.805v-5.328h4.534v5.328H519.681z
		 M519.681,942.06v-5.328h4.534v5.328H519.681z M519.681,949.315v-5.328h4.534v5.328H519.681z M519.681,956.572v-5.328h4.534v5.328
		H519.681z M519.681,963.827v-5.328h4.534v5.328H519.681z M519.681,971.082v-5.327h4.534v5.327H519.681z M519.681,978.337v-5.328
		h4.534v5.328H519.681z M519.681,985.593v-5.328h4.534v5.328H519.681z M519.681,992.849v-5.329h4.534v5.329H519.681z
		 M519.681,1000.104v-5.329h4.534v5.329H519.681z M519.681,1007.36v-5.328h4.534v5.328H519.681z M519.681,1014.615v-5.328h4.534
		v5.328H519.681z M519.681,1021.871v-5.328h4.534v5.328H519.681z M526.936,934.805v-5.328h4.535v5.328H526.936z M526.936,942.06
		v-5.328h4.535v5.328H526.936z M526.936,949.315v-5.328h4.535v5.328H526.936z M526.936,956.572v-5.328h4.535v5.328H526.936z
		 M526.936,963.827v-5.328h4.535v5.328H526.936z M526.936,971.082v-5.327h4.535v5.327H526.936z M526.936,978.337v-5.328h4.535v5.328
		H526.936z M526.936,985.593v-5.328h4.535v5.328H526.936z M526.936,992.849v-5.329h4.535v5.329H526.936z M526.936,1000.104v-5.329
		h4.535v5.329H526.936z M526.936,1007.36v-5.328h4.535v5.328H526.936z M526.936,1014.615v-5.328h4.535v5.328H526.936z
		 M526.936,1021.871v-5.328h4.535v5.328H526.936z M534.191,934.805v-5.328h4.535v5.328H534.191z M534.191,942.06v-5.328h4.535v5.328
		H534.191z M534.191,949.315v-5.328h4.535v5.328H534.191z M534.191,971.082v-5.327h4.535v5.327H534.191z M534.191,978.337v-5.328
		h4.535v5.328H534.191z M534.191,985.593v-5.328h4.535v5.328H534.191z M541.447,934.805v-5.328h4.535v5.328H541.447z
		 M541.447,942.06v-5.328h4.535v5.328H541.447z M541.447,949.315v-5.328h4.535v5.328H541.447z M541.447,971.082v-5.327h4.535v5.327
		H541.447z M541.447,978.337v-5.328h4.535v5.328H541.447z M541.447,985.593v-5.328h4.535v5.328H541.447z M548.703,934.805v-5.328
		h4.534v5.328H548.703z M548.703,942.06v-5.328h4.534v5.328H548.703z M548.703,949.315v-5.328h4.534v5.328H548.703z
		 M548.703,971.082v-5.327h4.534v5.327H548.703z M548.703,978.337v-5.328h4.534v5.328H548.703z M548.703,985.593v-5.328h4.534v5.328
		H548.703z M555.958,934.805v-5.328h4.535v5.328H555.958z M555.958,942.06v-5.328h4.535v5.328H555.958z M555.958,949.315v-5.328
		h4.535v5.328H555.958z M555.958,971.082v-5.327h4.535v5.327H555.958z M555.958,978.337v-5.328h4.535v5.328H555.958z
		 M555.958,985.593v-5.328h4.535v5.328H555.958z M563.213,934.805v-5.328h4.535v5.328H563.213z M563.213,942.06v-5.328h4.535v5.328
		H563.213z M563.213,949.315v-5.328h4.535v5.328H563.213z M563.213,971.082v-5.327h4.535v5.327H563.213z M563.213,978.337v-5.328
		h4.535v5.328H563.213z M563.213,985.593v-5.328h4.535v5.328H563.213z M570.469,934.805v-5.328h4.535v5.328H570.469z
		 M570.469,942.06v-5.328h4.535v5.328H570.469z M570.469,949.315v-5.328h4.535v5.328H570.469z M570.469,956.572v-5.328h4.535v5.328
		H570.469z M570.469,963.827v-5.328h4.535v5.328H570.469z M570.469,971.082v-5.327h4.535v5.327H570.469z M570.469,978.337v-5.328
		h4.535v5.328H570.469z M570.469,985.593v-5.328h4.535v5.328H570.469z M577.724,942.06v-5.328h4.535v5.328H577.724z
		 M577.724,949.315v-5.328h4.535v5.328H577.724z M577.724,956.572v-5.328h4.535v5.328H577.724z M577.724,963.827v-5.328h4.535v5.328
		H577.724z M577.724,971.082v-5.327h4.535v5.327H577.724z M577.724,978.337v-5.328h4.535v5.328H577.724z M584.98,949.315v-5.328
		h4.534v5.328H584.98z M584.98,956.572v-5.328h4.534v5.328H584.98z M584.98,963.827v-5.328h4.534v5.328H584.98z M584.98,971.082
		v-5.327h4.534v5.327H584.98z"/>
	<path fill="#1A2A6C" stroke="#1A2A6C" stroke-width="0.7031" stroke-miterlimit="10" d="M599.491,949.315v-5.328h4.535v5.328
		H599.491z M599.491,956.572v-5.328h4.535v5.328H599.491z M599.491,963.827v-5.328h4.535v5.328H599.491z M599.491,971.082v-5.327
		h4.535v5.327H599.491z M599.491,978.337v-5.328h4.535v5.328H599.491z M599.491,985.593v-5.328h4.535v5.328H599.491z
		 M599.491,992.849v-5.329h4.535v5.329H599.491z M599.491,1000.104v-5.329h4.535v5.329H599.491z M599.491,1007.36v-5.328h4.535
		v5.328H599.491z M599.491,1014.615v-5.328h4.535v5.328H599.491z M599.491,1021.871v-5.328h4.535v5.328H599.491z M606.747,942.06
		v-5.328h4.535v5.328H606.747z M606.747,949.315v-5.328h4.535v5.328H606.747z M606.747,956.572v-5.328h4.535v5.328H606.747z
		 M606.747,963.827v-5.328h4.535v5.328H606.747z M606.747,971.082v-5.327h4.535v5.327H606.747z M606.747,978.337v-5.328h4.535v5.328
		H606.747z M606.747,985.593v-5.328h4.535v5.328H606.747z M606.747,992.849v-5.329h4.535v5.329H606.747z M606.747,1000.104v-5.329
		h4.535v5.329H606.747z M606.747,1007.36v-5.328h4.535v5.328H606.747z M606.747,1014.615v-5.328h4.535v5.328H606.747z
		 M606.747,1021.871v-5.328h4.535v5.328H606.747z M614.002,934.805v-5.328h4.535v5.328H614.002z M614.002,942.06v-5.328h4.535v5.328
		H614.002z M614.002,949.315v-5.328h4.535v5.328H614.002z M614.002,956.572v-5.328h4.535v5.328H614.002z M614.002,963.827v-5.328
		h4.535v5.328H614.002z M614.002,971.082v-5.327h4.535v5.327H614.002z M614.002,978.337v-5.328h4.535v5.328H614.002z
		 M614.002,985.593v-5.328h4.535v5.328H614.002z M614.002,992.849v-5.329h4.535v5.329H614.002z M614.002,1000.104v-5.329h4.535
		v5.329H614.002z M614.002,1007.36v-5.328h4.535v5.328H614.002z M614.002,1014.615v-5.328h4.535v5.328H614.002z M614.002,1021.871
		v-5.328h4.535v5.328H614.002z M621.257,934.805v-5.328h4.535v5.328H621.257z M621.257,942.06v-5.328h4.535v5.328H621.257z
		 M621.257,949.315v-5.328h4.535v5.328H621.257z M621.257,971.082v-5.327h4.535v5.327H621.257z M621.257,978.337v-5.328h4.535v5.328
		H621.257z M621.257,985.593v-5.328h4.535v5.328H621.257z M628.512,934.805v-5.328h4.535v5.328H628.512z M628.512,942.06v-5.328
		h4.535v5.328H628.512z M628.512,949.315v-5.328h4.535v5.328H628.512z M628.512,971.082v-5.327h4.535v5.327H628.512z
		 M628.512,978.337v-5.328h4.535v5.328H628.512z M628.512,985.593v-5.328h4.535v5.328H628.512z M635.769,934.805v-5.328h4.534v5.328
		H635.769z M635.769,942.06v-5.328h4.534v5.328H635.769z M635.769,949.315v-5.328h4.534v5.328H635.769z M635.769,971.082v-5.327
		h4.534v5.327H635.769z M635.769,978.337v-5.328h4.534v5.328H635.769z M635.769,985.593v-5.328h4.534v5.328H635.769z
		 M643.024,934.805v-5.328h4.534v5.328H643.024z M643.024,942.06v-5.328h4.534v5.328H643.024z M643.024,949.315v-5.328h4.534v5.328
		H643.024z M643.024,971.082v-5.327h4.534v5.327H643.024z M643.024,978.337v-5.328h4.534v5.328H643.024z M643.024,985.593v-5.328
		h4.534v5.328H643.024z M650.279,934.805v-5.328h4.535v5.328H650.279z M650.279,942.06v-5.328h4.535v5.328H650.279z
		 M650.279,949.315v-5.328h4.535v5.328H650.279z M650.279,971.082v-5.327h4.535v5.327H650.279z M650.279,978.337v-5.328h4.535v5.328
		H650.279z M650.279,985.593v-5.328h4.535v5.328H650.279z M657.535,934.805v-5.328h4.535v5.328H657.535z M657.535,942.06v-5.328
		h4.535v5.328H657.535z M657.535,949.315v-5.328h4.535v5.328H657.535z M657.535,956.572v-5.328h4.535v5.328H657.535z
		 M657.535,963.827v-5.328h4.535v5.328H657.535z M657.535,971.082v-5.327h4.535v5.327H657.535z M657.535,978.337v-5.328h4.535v5.328
		H657.535z M657.535,985.593v-5.328h4.535v5.328H657.535z M657.535,992.849v-5.329h4.535v5.329H657.535z M657.535,1000.104v-5.329
		h4.535v5.329H657.535z M657.535,1007.36v-5.328h4.535v5.328H657.535z M657.535,1014.615v-5.328h4.535v5.328H657.535z
		 M657.535,1021.871v-5.328h4.535v5.328H657.535z M664.79,942.06v-5.328h4.535v5.328H664.79z M664.79,949.315v-5.328h4.535v5.328
		H664.79z M664.79,956.572v-5.328h4.535v5.328H664.79z M664.79,963.827v-5.328h4.535v5.328H664.79z M664.79,971.082v-5.327h4.535
		v5.327H664.79z M664.79,978.337v-5.328h4.535v5.328H664.79z M664.79,985.593v-5.328h4.535v5.328H664.79z M664.79,992.849v-5.329
		h4.535v5.329H664.79z M664.79,1000.104v-5.329h4.535v5.329H664.79z M664.79,1007.36v-5.328h4.535v5.328H664.79z M664.79,1014.615
		v-5.328h4.535v5.328H664.79z M664.79,1021.871v-5.328h4.535v5.328H664.79z M672.046,949.315v-5.328h4.534v5.328H672.046z
		 M672.046,956.572v-5.328h4.534v5.328H672.046z M672.046,963.827v-5.328h4.534v5.328H672.046z M672.046,971.082v-5.327h4.534v5.327
		H672.046z M672.046,978.337v-5.328h4.534v5.328H672.046z M672.046,985.593v-5.328h4.534v5.328H672.046z M672.046,992.849v-5.329
		h4.534v5.329H672.046z M672.046,1000.104v-5.329h4.534v5.329H672.046z M672.046,1007.36v-5.328h4.534v5.328H672.046z
		 M672.046,1014.615v-5.328h4.534v5.328H672.046z M672.046,1021.871v-5.328h4.534v5.328H672.046z"/>
	<path fill="#1A2A6C" stroke="#1A2A6C" stroke-width="0.7031" stroke-miterlimit="10" d="M686.556,934.805v-5.328h4.535v5.328
		H686.556z M686.556,942.06v-5.328h4.535v5.328H686.556z M686.556,949.315v-5.328h4.535v5.328H686.556z M686.556,956.572v-5.328
		h4.535v5.328H686.556z M686.556,963.827v-5.328h4.535v5.328H686.556z M686.556,971.082v-5.327h4.535v5.327H686.556z
		 M686.556,978.337v-5.328h4.535v5.328H686.556z M686.556,985.593v-5.328h4.535v5.328H686.556z M686.556,992.849v-5.329h4.535v5.329
		H686.556z M686.556,1000.104v-5.329h4.535v5.329H686.556z M686.556,1007.36v-5.328h4.535v5.328H686.556z M686.556,1014.615v-5.328
		h4.535v5.328H686.556z M686.556,1021.871v-5.328h4.535v5.328H686.556z M693.812,934.805v-5.328h4.535v5.328H693.812z
		 M693.812,942.06v-5.328h4.535v5.328H693.812z M693.812,949.315v-5.328h4.535v5.328H693.812z M693.812,956.572v-5.328h4.535v5.328
		H693.812z M693.812,963.827v-5.328h4.535v5.328H693.812z M693.812,971.082v-5.327h4.535v5.327H693.812z M693.812,978.337v-5.328
		h4.535v5.328H693.812z M693.812,985.593v-5.328h4.535v5.328H693.812z M693.812,992.849v-5.329h4.535v5.329H693.812z
		 M693.812,1000.104v-5.329h4.535v5.329H693.812z M693.812,1007.36v-5.328h4.535v5.328H693.812z M693.812,1014.615v-5.328h4.535
		v5.328H693.812z M693.812,1021.871v-5.328h4.535v5.328H693.812z M701.067,934.805v-5.328h4.535v5.328H701.067z M701.067,942.06
		v-5.328h4.535v5.328H701.067z M701.067,949.315v-5.328h4.535v5.328H701.067z M701.067,956.572v-5.328h4.535v5.328H701.067z
		 M701.067,963.827v-5.328h4.535v5.328H701.067z M701.067,971.082v-5.327h4.535v5.327H701.067z M701.067,978.337v-5.328h4.535v5.328
		H701.067z M701.067,985.593v-5.328h4.535v5.328H701.067z M701.067,992.849v-5.329h4.535v5.329H701.067z M701.067,1000.104v-5.329
		h4.535v5.329H701.067z M701.067,1007.36v-5.328h4.535v5.328H701.067z M701.067,1014.615v-5.328h4.535v5.328H701.067z
		 M701.067,1021.871v-5.328h4.535v5.328H701.067z M708.323,934.805v-5.328h4.534v5.328H708.323z M708.323,942.06v-5.328h4.534v5.328
		H708.323z M708.323,949.315v-5.328h4.534v5.328H708.323z M708.323,971.082v-5.327h4.534v5.327H708.323z M708.323,978.337v-5.328
		h4.534v5.328H708.323z M708.323,985.593v-5.328h4.534v5.328H708.323z M715.578,934.805v-5.328h4.535v5.328H715.578z
		 M715.578,942.06v-5.328h4.535v5.328H715.578z M715.578,949.315v-5.328h4.535v5.328H715.578z M715.578,971.082v-5.327h4.535v5.327
		H715.578z M715.578,978.337v-5.328h4.535v5.328H715.578z M715.578,985.593v-5.328h4.535v5.328H715.578z M722.834,934.805v-5.328
		h4.534v5.328H722.834z M722.834,942.06v-5.328h4.534v5.328H722.834z M722.834,949.315v-5.328h4.534v5.328H722.834z
		 M722.834,971.082v-5.327h4.534v5.327H722.834z M722.834,978.337v-5.328h4.534v5.328H722.834z M722.834,985.593v-5.328h4.534v5.328
		H722.834z M730.089,934.805v-5.328h4.535v5.328H730.089z M730.089,942.06v-5.328h4.535v5.328H730.089z M730.089,949.315v-5.328
		h4.535v5.328H730.089z M730.089,971.082v-5.327h4.535v5.327H730.089z M730.089,978.337v-5.328h4.535v5.328H730.089z
		 M730.089,985.593v-5.328h4.535v5.328H730.089z M737.345,934.805v-5.328h4.535v5.328H737.345z M737.345,942.06v-5.328h4.535v5.328
		H737.345z M737.345,949.315v-5.328h4.535v5.328H737.345z M737.345,971.082v-5.327h4.535v5.327H737.345z M737.345,978.337v-5.328
		h4.535v5.328H737.345z M737.345,985.593v-5.328h4.535v5.328H737.345z M744.6,934.805v-5.328h4.535v5.328H744.6z M744.6,942.06
		v-5.328h4.535v5.328H744.6z M744.6,949.315v-5.328h4.535v5.328H744.6z M744.6,956.572v-5.328h4.535v5.328H744.6z M744.6,963.827
		v-5.328h4.535v5.328H744.6z M744.6,971.082v-5.327h4.535v5.327H744.6z M744.6,978.337v-5.328h4.535v5.328H744.6z M744.6,985.593
		v-5.328h4.535v5.328H744.6z M744.6,992.849v-5.329h4.535v5.329H744.6z M744.6,1000.104v-5.329h4.535v5.329H744.6z M744.6,1007.36
		v-5.328h4.535v5.328H744.6z M744.6,1014.615v-5.328h4.535v5.328H744.6z M744.6,1021.871v-5.328h4.535v5.328H744.6z M751.856,942.06
		v-5.328h4.535v5.328H751.856z M751.856,949.315v-5.328h4.535v5.328H751.856z M751.856,956.572v-5.328h4.535v5.328H751.856z
		 M751.856,963.827v-5.328h4.535v5.328H751.856z M751.856,971.082v-5.327h4.535v5.327H751.856z M751.856,978.337v-5.328h4.535v5.328
		H751.856z M751.856,985.593v-5.328h4.535v5.328H751.856z M751.856,992.849v-5.329h4.535v5.329H751.856z M751.856,1000.104v-5.329
		h4.535v5.329H751.856z M751.856,1007.36v-5.328h4.535v5.328H751.856z M751.856,1014.615v-5.328h4.535v5.328H751.856z
		 M751.856,1021.871v-5.328h4.535v5.328H751.856z M759.111,949.315v-5.328h4.535v5.328H759.111z M759.111,956.572v-5.328h4.535
		v5.328H759.111z M759.111,963.827v-5.328h4.535v5.328H759.111z M759.111,971.082v-5.327h4.535v5.327H759.111z M759.111,985.593
		v-5.328h4.535v5.328H759.111z M759.111,992.849v-5.329h4.535v5.329H759.111z M759.111,1000.104v-5.329h4.535v5.329H759.111z
		 M759.111,1007.36v-5.328h4.535v5.328H759.111z M759.111,1014.615v-5.328h4.535v5.328H759.111z M759.111,1021.871v-5.328h4.535
		v5.328H759.111z"/>
	<path fill="#1A2A6C" stroke="#1A2A6C" stroke-width="0.7031" stroke-miterlimit="10" d="M773.622,934.805v-5.328h4.535v5.328
		H773.622z M773.622,942.06v-5.328h4.535v5.328H773.622z M773.622,949.315v-5.328h4.535v5.328H773.622z M780.879,934.805v-5.328
		h4.534v5.328H780.879z M780.879,942.06v-5.328h4.534v5.328H780.879z M780.879,949.315v-5.328h4.534v5.328H780.879z
		 M788.134,934.805v-5.328h4.535v5.328H788.134z M788.134,942.06v-5.328h4.535v5.328H788.134z M788.134,949.315v-5.328h4.535v5.328
		H788.134z M795.389,934.805v-5.328h4.535v5.328H795.389z M795.389,942.06v-5.328h4.535v5.328H795.389z M795.389,949.315v-5.328
		h4.535v5.328H795.389z M802.644,934.805v-5.328h4.535v5.328H802.644z M802.644,942.06v-5.328h4.535v5.328H802.644z
		 M802.644,949.315v-5.328h4.535v5.328H802.644z M802.644,956.572v-5.328h4.535v5.328H802.644z M802.644,963.827v-5.328h4.535v5.328
		H802.644z M802.644,971.082v-5.327h4.535v5.327H802.644z M802.644,978.337v-5.328h4.535v5.328H802.644z M802.644,985.593v-5.328
		h4.535v5.328H802.644z M802.644,992.849v-5.329h4.535v5.329H802.644z M802.644,1000.104v-5.329h4.535v5.329H802.644z
		 M802.644,1007.36v-5.328h4.535v5.328H802.644z M802.644,1014.615v-5.328h4.535v5.328H802.644z M802.644,1021.871v-5.328h4.535
		v5.328H802.644z M809.9,934.805v-5.328h4.533v5.328H809.9z M809.9,942.06v-5.328h4.533v5.328H809.9z M809.9,949.315v-5.328h4.533
		v5.328H809.9z M809.9,956.572v-5.328h4.533v5.328H809.9z M809.9,963.827v-5.328h4.533v5.328H809.9z M809.9,971.082v-5.327h4.533
		v5.327H809.9z M809.9,978.337v-5.328h4.533v5.328H809.9z M809.9,985.593v-5.328h4.533v5.328H809.9z M809.9,992.849v-5.329h4.533
		v5.329H809.9z M809.9,1000.104v-5.329h4.533v5.329H809.9z M809.9,1007.36v-5.328h4.533v5.328H809.9z M809.9,1014.615v-5.328h4.533
		v5.328H809.9z M809.9,1021.871v-5.328h4.533v5.328H809.9z M817.155,934.805v-5.328h4.535v5.328H817.155z M817.155,942.06v-5.328
		h4.535v5.328H817.155z M817.155,949.315v-5.328h4.535v5.328H817.155z M817.155,956.572v-5.328h4.535v5.328H817.155z
		 M817.155,963.827v-5.328h4.535v5.328H817.155z M817.155,971.082v-5.327h4.535v5.327H817.155z M817.155,978.337v-5.328h4.535v5.328
		H817.155z M817.155,985.593v-5.328h4.535v5.328H817.155z M817.155,992.849v-5.329h4.535v5.329H817.155z M817.155,1000.104v-5.329
		h4.535v5.329H817.155z M817.155,1007.36v-5.328h4.535v5.328H817.155z M817.155,1014.615v-5.328h4.535v5.328H817.155z
		 M817.155,1021.871v-5.328h4.535v5.328H817.155z M824.411,934.805v-5.328h4.534v5.328H824.411z M824.411,942.06v-5.328h4.534v5.328
		H824.411z M824.411,949.315v-5.328h4.534v5.328H824.411z M831.666,934.805v-5.328h4.535v5.328H831.666z M831.666,942.06v-5.328
		h4.535v5.328H831.666z M831.666,949.315v-5.328h4.535v5.328H831.666z M838.922,934.805v-5.328h4.534v5.328H838.922z
		 M838.922,942.06v-5.328h4.534v5.328H838.922z M838.922,949.315v-5.328h4.534v5.328H838.922z M846.177,934.805v-5.328h4.535v5.328
		H846.177z M846.177,942.06v-5.328h4.535v5.328H846.177z M846.177,949.315v-5.328h4.535v5.328H846.177z"/>
	<path fill="#1A2A6C" stroke="#1A2A6C" stroke-width="0.7031" stroke-miterlimit="10" d="M860.688,934.805v-5.328h4.535v5.328
		H860.688z M860.688,942.06v-5.328h4.535v5.328H860.688z M860.688,949.315v-5.328h4.535v5.328H860.688z M860.688,956.572v-5.328
		h4.535v5.328H860.688z M860.688,963.827v-5.328h4.535v5.328H860.688z M860.688,971.082v-5.327h4.535v5.327H860.688z
		 M860.688,1007.36v-5.328h4.535v5.328H860.688z M860.688,1014.615v-5.328h4.535v5.328H860.688z M860.688,1021.871v-5.328h4.535
		v5.328H860.688z M867.943,934.805v-5.328h4.535v5.328H867.943z M867.943,942.06v-5.328h4.535v5.328H867.943z M867.943,949.315
		v-5.328h4.535v5.328H867.943z M867.943,956.572v-5.328h4.535v5.328H867.943z M867.943,963.827v-5.328h4.535v5.328H867.943z
		 M867.943,971.082v-5.327h4.535v5.327H867.943z M867.943,978.337v-5.328h4.535v5.328H867.943z M867.943,1007.36v-5.328h4.535v5.328
		H867.943z M867.943,1014.615v-5.328h4.535v5.328H867.943z M867.943,1021.871v-5.328h4.535v5.328H867.943z M875.197,934.805v-5.328
		h4.535v5.328H875.197z M875.197,942.06v-5.328h4.535v5.328H875.197z M875.197,949.315v-5.328h4.535v5.328H875.197z
		 M875.197,956.572v-5.328h4.535v5.328H875.197z M875.197,963.827v-5.328h4.535v5.328H875.197z M875.197,971.082v-5.327h4.535v5.327
		H875.197z M875.197,978.337v-5.328h4.535v5.328H875.197z M875.197,985.593v-5.328h4.535v5.328H875.197z M875.197,1007.36v-5.328
		h4.535v5.328H875.197z M875.197,1014.615v-5.328h4.535v5.328H875.197z M875.197,1021.871v-5.328h4.535v5.328H875.197z
		 M882.454,971.082v-5.327h4.534v5.327H882.454z M882.454,978.337v-5.328h4.534v5.328H882.454z M882.454,985.593v-5.328h4.534v5.328
		H882.454z M882.454,1007.36v-5.328h4.534v5.328H882.454z M882.454,1014.615v-5.328h4.534v5.328H882.454z M882.454,1021.871v-5.328
		h4.534v5.328H882.454z M889.71,971.082v-5.327h4.535v5.327H889.71z M889.71,978.337v-5.328h4.535v5.328H889.71z M889.71,985.593
		v-5.328h4.535v5.328H889.71z M889.71,1007.36v-5.328h4.535v5.328H889.71z M889.71,1014.615v-5.328h4.535v5.328H889.71z
		 M889.71,1021.871v-5.328h4.535v5.328H889.71z M896.966,971.082v-5.327h4.533v5.327H896.966z M896.966,978.337v-5.328h4.533v5.328
		H896.966z M896.966,985.593v-5.328h4.533v5.328H896.966z M896.966,1007.36v-5.328h4.533v5.328H896.966z M896.966,1014.615v-5.328
		h4.533v5.328H896.966z M896.966,1021.871v-5.328h4.533v5.328H896.966z M904.221,971.082v-5.327h4.534v5.327H904.221z
		 M904.221,978.337v-5.328h4.534v5.328H904.221z M904.221,985.593v-5.328h4.534v5.328H904.221z M904.221,1007.36v-5.328h4.534v5.328
		H904.221z M904.221,1014.615v-5.328h4.534v5.328H904.221z M904.221,1021.871v-5.328h4.534v5.328H904.221z M911.477,971.082v-5.327
		h4.535v5.327H911.477z M911.477,978.337v-5.328h4.535v5.328H911.477z M911.477,985.593v-5.328h4.535v5.328H911.477z
		 M911.477,1007.36v-5.328h4.535v5.328H911.477z M911.477,1014.615v-5.328h4.535v5.328H911.477z M911.477,1021.871v-5.328h4.535
		v5.328H911.477z M918.73,934.805v-5.328h4.535v5.328H918.73z M918.73,942.06v-5.328h4.535v5.328H918.73z M918.73,949.315v-5.328
		h4.535v5.328H918.73z M918.73,956.572v-5.328h4.535v5.328H918.73z M918.73,963.827v-5.328h4.535v5.328H918.73z M918.73,971.082
		v-5.327h4.535v5.327H918.73z M918.73,978.337v-5.328h4.535v5.328H918.73z M918.73,985.593v-5.328h4.535v5.328H918.73z
		 M918.73,992.849v-5.329h4.535v5.329H918.73z M918.73,1000.104v-5.329h4.535v5.329H918.73z M918.73,1007.36v-5.328h4.535v5.328
		H918.73z M918.73,1014.615v-5.328h4.535v5.328H918.73z M918.73,1021.871v-5.328h4.535v5.328H918.73z M925.986,934.805v-5.328h4.535
		v5.328H925.986z M925.986,942.06v-5.328h4.535v5.328H925.986z M925.986,949.315v-5.328h4.535v5.328H925.986z M925.986,956.572
		v-5.328h4.535v5.328H925.986z M925.986,963.827v-5.328h4.535v5.328H925.986z M925.986,971.082v-5.327h4.535v5.327H925.986z
		 M925.986,978.337v-5.328h4.535v5.328H925.986z M925.986,985.593v-5.328h4.535v5.328H925.986z M925.986,992.849v-5.329h4.535v5.329
		H925.986z M925.986,1000.104v-5.329h4.535v5.329H925.986z M925.986,1007.36v-5.328h4.535v5.328H925.986z M925.986,1014.615v-5.328
		h4.535v5.328H925.986z M933.243,934.805v-5.328h4.534v5.328H933.243z M933.243,942.06v-5.328h4.534v5.328H933.243z
		 M933.243,949.315v-5.328h4.534v5.328H933.243z M933.243,956.572v-5.328h4.534v5.328H933.243z M933.243,963.827v-5.328h4.534v5.328
		H933.243z M933.243,971.082v-5.327h4.534v5.327H933.243z M933.243,978.337v-5.328h4.534v5.328H933.243z M933.243,985.593v-5.328
		h4.534v5.328H933.243z M933.243,992.849v-5.329h4.534v5.329H933.243z M933.243,1000.104v-5.329h4.534v5.329H933.243z
		 M933.243,1007.36v-5.328h4.534v5.328H933.243z"/>
</g>
<g>
	<path fill="#1A2A6C" d="M82.087,1066.357l-6.337,7.506c-2.829-3.445-7.013-5.599-10.827-5.599c-6.829,0-11.997,5.415-11.997,12.488
		c0,7.198,5.167,12.674,11.997,12.674c3.629,0,7.813-1.969,10.827-5.045l6.398,6.769c-4.614,4.736-11.443,7.874-17.78,7.874
		c-12.98,0-22.639-9.535-22.639-22.148c0-12.427,9.905-21.778,23.009-21.778C71.137,1059.097,77.781,1061.927,82.087,1066.357z"/>
	<path fill="#1A2A6C" d="M115.923,1102.532v-16.734H98.082v16.734H87.131v-43.065h10.951v17.719h17.841v-17.719h10.95v43.065
		H115.923z"/>
	<path fill="#1A2A6C" d="M145.267,1094.595l-3.138,7.937h-11.258l18.58-43.065h11.258l18.149,43.065h-11.688l-3.077-7.937H145.267z
		 M154.742,1070.355l-6.275,15.935h12.427L154.742,1070.355z"/>
	<path fill="#1A2A6C" d="M182.854,1102.532v-43.065h10.951v43.065H182.854z"/>
	<path fill="#1A2A6C" d="M232.502,1102.532l-19.81-26.516v26.516h-10.274v-43.065h9.659l19.871,26.577v-26.577h10.212v43.065
		H232.502z"/>
	<path fill="#1A2A6C" d="M284.609,1090.412h-0.308h-8.306v12.12h-10.951v-43.065h19.257c11.381,0,17.902,5.414,17.902,15.011
		c0,6.584-2.769,11.32-7.813,13.844l9.043,14.211h-12.428L284.609,1090.412z M284.301,1081.799c4.737,0,7.505-2.399,7.505-6.952
		c0-4.492-2.769-6.767-7.505-6.767h-8.306v13.719H284.301z"/>
	<path fill="#1A2A6C" d="M309.585,1102.532v-43.065h10.951v43.065H309.585z"/>
	<path fill="#1A2A6C" d="M367.23,1080.63v16.795c-4.614,3.26-11.874,5.599-17.902,5.599c-13.104,0-23.009-9.475-23.009-22.025
		c0-12.487,10.151-21.901,23.747-21.901c6.398,0,13.166,2.462,17.596,6.398l-6.152,7.444c-3.138-2.893-7.506-4.676-11.505-4.676
		c-7.075,0-12.489,5.538-12.489,12.734c0,7.322,5.476,12.858,12.612,12.858c2.215,0,5.044-0.799,7.628-2.092v-11.135H367.23z"/>
	<path fill="#1A2A6C" d="M403.65,1102.532v-16.734h-17.842v16.734h-10.95v-43.065h10.95v17.719h17.842v-17.719h10.95v43.065H403.65z
		"/>
	<path fill="#1A2A6C" d="M443.145,1068.264v34.268h-10.951v-34.268h-12.858v-8.859h36.79v8.859H443.145z"/>
	<path fill="#1A2A6C" d="M512.724,1102.532l-0.062-27.991l-10.335,23.685h-7.136l-10.336-23.685v27.991h-9.782v-43.127h11.997
		l11.689,25.654l11.688-25.654h11.935v43.127H512.724z"/>
	<path fill="#1A2A6C" d="M540.837,1094.595l-3.138,7.937H526.44l18.58-43.065h11.259l18.148,43.065h-11.69l-3.074-7.937H540.837z
		 M550.311,1070.355l-6.274,15.935h12.427L550.311,1070.355z"/>
	<path fill="#1A2A6C" d="M608.509,1102.532l-19.809-26.516v26.516h-10.274v-43.065h9.658l19.871,26.577v-26.577h10.212v43.065
		H608.509z"/>
	<path fill="#1A2A6C" d="M636.562,1094.595l-3.138,7.937h-11.259l18.58-43.065h11.259l18.148,43.065h-11.69l-3.075-7.937H636.562z
		 M646.035,1070.355l-6.275,15.935h12.428L646.035,1070.355z"/>
	<path fill="#1A2A6C" d="M711.062,1080.63v16.795c-4.615,3.26-11.874,5.599-17.903,5.599c-13.104,0-23.009-9.475-23.009-22.025
		c0-12.487,10.15-21.901,23.747-21.901c6.399,0,13.166,2.462,17.595,6.398l-6.151,7.444c-3.138-2.893-7.507-4.676-11.505-4.676
		c-7.075,0-12.489,5.538-12.489,12.734c0,7.322,5.476,12.858,12.611,12.858c2.215,0,5.045-0.799,7.629-2.092v-11.135H711.062z"/>
	<path fill="#1A2A6C" d="M729.641,1068.081v8.551h20.548v8.612h-20.548v8.675h23.439v8.613h-34.39v-43.065h33.715v8.614H729.641z"/>
	<path fill="#1A2A6C" d="M797.805,1102.532l-0.062-27.991l-10.334,23.685h-7.138l-10.335-23.685v27.991h-9.78v-43.127h11.996
		l11.688,25.654l11.689-25.654h11.935v43.127H797.805z"/>
	<path fill="#1A2A6C" d="M827.087,1068.081v8.551h20.55v8.612h-20.55v8.675h23.44v8.613h-34.39v-43.065h33.713v8.614H827.087z"/>
	<path fill="#1A2A6C" d="M887.685,1102.532l-19.809-26.516v26.516h-10.274v-43.065h9.659l19.87,26.577v-26.577h10.213v43.065
		H887.685z"/>
	<path fill="#1A2A6C" d="M925.89,1068.264v34.268h-10.951v-34.268H902.08v-8.859h36.79v8.859H925.89z"/>
</g>
</svg>
