<svg xmlns="http://www.w3.org/2000/svg" viewBox="-25.864 -238.896 306.728 207.904">
  <defs>
    <style>
      .cls-1 {
        fill: #fff;
      }
    </style>
  </defs>
  <path id="Union_2" data-name="Union 2" class="cls-1" d="M54.074,189.724V132.854a8.857,8.857,0,0,0-17.714,0v3.728a18.18,18.18,0,1,1-36.36,0V80.645a18.18,18.18,0,0,1,36.36,0V96.96h.31a8.86,8.86,0,0,0,17.095,0h.31V48.014a18.18,18.18,0,1,1,36.36,0V76.449h.31a8.86,8.86,0,0,0,17.095,0h.31V18.18a18.18,18.18,0,1,1,36.36,0V95.095h.31a8.86,8.86,0,0,0,17.095,0h.31V37.759a18.18,18.18,0,1,1,36.359,0v38.69h.311a8.86,8.86,0,0,0,17.095,0h.309V60.892a18.18,18.18,0,0,1,36.359.174v75.517a18.18,18.18,0,0,1-36.359.174V112.343a8.857,8.857,0,0,0-17.714,0V159.89a18.18,18.18,0,1,1-36.359,0v-28.9a8.857,8.857,0,0,0-17.714,0v28.9a18.18,18.18,0,0,1-36.36,0V112.343a8.857,8.857,0,0,0-17.714,0v77.38a18.18,18.18,0,1,1-36.36,0Zm216.294-68.99V107.681a18.18,18.18,0,0,1,36.36,0v13.053a18.18,18.18,0,1,1-36.36,0Z" transform="translate(-25.864 -238.896)"/>
</svg>
